<svg width="25" height="24" viewBox="0 0 25 24" fill="none" xmlns="http://www.w3.org/2000/svg">
<path d="M6.58246 16.26C6.39246 16.26 6.20246 16.19 6.05246 16.04C5.76246 15.75 5.76246 15.27 6.05246 14.98L9.10246 11.93C9.39246 11.64 9.87246 11.64 10.1625 11.93C10.4525 12.22 10.4525 12.7 10.1625 12.99L7.11246 16.04C6.96246 16.18 6.77246 16.26 6.58246 16.26Z" fill="white"/>
<path d="M9.66273 16.2901C9.47273 16.2901 9.28273 16.2201 9.13273 16.0701L6.08273 13.0201C5.79273 12.7301 5.79273 12.2501 6.08273 11.9601C6.37273 11.6701 6.85273 11.6701 7.14273 11.9601L10.1927 15.0101C10.4827 15.3001 10.4827 15.7801 10.1927 16.0701C10.0427 16.2201 9.85273 16.2901 9.66273 16.2901Z" fill="white"/>
<path d="M13.6023 15C13.0523 15 12.5923 14.55 12.5923 14C12.5923 13.45 13.0323 13 13.5823 13H13.6023C14.1523 13 14.6023 13.45 14.6023 14C14.6023 14.55 14.1623 15 13.6023 15Z" fill="white"/>
<path d="M17.5427 15C16.9927 15 16.5327 14.55 16.5327 14C16.5327 13.45 16.9727 13 17.5227 13H17.5427C18.0927 13 18.5427 13.45 18.5427 14C18.5427 14.55 18.0927 15 17.5427 15Z" fill="white"/>
<path d="M15.5625 16.97C15.0125 16.97 14.5625 16.53 14.5625 15.98V15.96C14.5625 15.41 15.0125 14.96 15.5625 14.96C16.1125 14.96 16.5625 15.41 16.5625 15.96C16.5625 16.51 16.1225 16.97 15.5625 16.97Z" fill="white"/>
<path d="M15.5625 13.03C15.0125 13.03 14.5625 12.59 14.5625 12.04V12.02C14.5625 11.47 15.0125 11.02 15.5625 11.02C16.1125 11.02 16.5625 11.47 16.5625 12.02C16.5625 12.57 16.1225 13.03 15.5625 13.03Z" fill="white"/>
<path d="M15.0625 22.75H9.0625C3.6325 22.75 1.3125 20.43 1.3125 15V13C1.3125 7.57 3.6325 5.25 9.0625 5.25H15.0625C20.4925 5.25 22.8125 7.57 22.8125 13V15C22.8125 20.43 20.4925 22.75 15.0625 22.75ZM9.0625 6.75C4.4525 6.75 2.8125 8.39 2.8125 13V15C2.8125 19.61 4.4525 21.25 9.0625 21.25H15.0625C19.6725 21.25 21.3125 19.61 21.3125 15V13C21.3125 8.39 19.6725 6.75 15.0625 6.75H9.0625Z" fill="white"/>
<path d="M13.0527 6.75H12.0527C11.0927 6.75 10.3027 5.96 10.3027 5C10.3027 4.04 11.0827 3.25 12.0427 3.25C12.2027 3.25 12.3127 3.14 12.3227 3L12.3327 1.99C12.3427 1.58 12.6727 1.25 13.0827 1.25H13.0927C13.5027 1.26 13.8427 1.6 13.8327 2.01L13.8227 3.02C13.8127 3.97 13.0227 4.75 12.0727 4.75C11.9127 4.75 11.8127 4.86 11.8127 5C11.8127 5.14 11.9227 5.25 12.0627 5.25H13.0627C13.4727 5.25 13.8127 5.59 13.8127 6C13.8127 6.41 13.4627 6.75 13.0527 6.75Z" fill="white"/>
</svg>
