<svg width="25" height="24" viewBox="0 0 25 24" fill="none" xmlns="http://www.w3.org/2000/svg">
<path d="M16.5625 20.75H7.5625C6.8125 20.75 6.2625 20.72 5.7925 20.65C2.4725 20.29 1.8125 18.3 1.8125 15V9C1.8125 5.7 2.4725 3.71 5.8225 3.34C6.2625 3.28 6.8125 3.25 7.5625 3.25H16.5625C17.3125 3.25 17.8625 3.28 18.3325 3.35C21.6525 3.71 22.3125 5.7 22.3125 9V15C22.3125 18.3 21.6525 20.29 18.3025 20.66C17.8625 20.72 17.3125 20.75 16.5625 20.75ZM7.5625 4.75C6.8825 4.75 6.4025 4.78 6.0125 4.83C3.9825 5.06 3.3125 5.69 3.3125 9V15C3.3125 18.31 3.9825 18.94 5.9825 19.17C6.4025 19.23 6.8825 19.25 7.5625 19.25H16.5625C17.2425 19.25 17.7225 19.22 18.1125 19.17C20.1425 18.95 20.8125 18.31 20.8125 15V9C20.8125 5.69 20.1425 5.06 18.1425 4.83C17.7225 4.77 17.2425 4.75 16.5625 4.75H7.5625Z" fill="white"/>
<path d="M17.0625 10.75H13.5625C13.1525 10.75 12.8125 10.41 12.8125 10C12.8125 9.59 13.1525 9.25 13.5625 9.25H17.0625C17.4725 9.25 17.8125 9.59 17.8125 10C17.8125 10.41 17.4725 10.75 17.0625 10.75Z" fill="white"/>
<path d="M10.1626 11C9.6126 11 9.1626 10.55 9.1626 10C9.1626 9.45 9.6026 9 10.1626 9H10.1726C10.7226 9 11.1726 9.45 11.1726 10C11.1726 10.55 10.7226 11 10.1626 11Z" fill="white"/>
<path d="M7.1626 11C6.6126 11 6.1626 10.55 6.1626 10C6.1626 9.45 6.6026 9 7.1626 9C7.7126 9 8.1626 9.45 8.1626 10C8.1626 10.55 7.7226 11 7.1626 11Z" fill="white"/>
<path d="M17.0623 16.25H7.08227C6.67227 16.25 6.32227 15.91 6.32227 15.5C6.32227 15.09 6.65227 14.75 7.06227 14.75H17.0623C17.4723 14.75 17.8123 15.09 17.8123 15.5C17.8123 15.91 17.4723 16.25 17.0623 16.25Z" fill="white"/>
</svg>
