<svg width="23" height="22" viewBox="0 0 23 22" fill="none" xmlns="http://www.w3.org/2000/svg">
<path d="M11.0625 20.8542C6.89167 20.8542 3.5 17.4625 3.5 13.2917V8.70837C3.5 4.53754 6.89167 1.14587 11.0625 1.14587C15.2333 1.14587 18.625 4.53754 18.625 8.70837V13.2917C18.625 17.4625 15.2333 20.8542 11.0625 20.8542ZM11.0625 2.52087C7.6525 2.52087 4.875 5.29837 4.875 8.70837V13.2917C4.875 16.7017 7.6525 19.4792 11.0625 19.4792C14.4725 19.4792 17.25 16.7017 17.25 13.2917V8.70837C17.25 5.29837 14.4725 2.52087 11.0625 2.52087Z" fill="white"/>
<path d="M11.0625 10.7708C9.92583 10.7708 9 9.845 9 8.70833V6.875C9 5.73833 9.92583 4.8125 11.0625 4.8125C12.1992 4.8125 13.125 5.73833 13.125 6.875V8.70833C13.125 9.845 12.1992 10.7708 11.0625 10.7708ZM11.0625 6.1875C10.6867 6.1875 10.375 6.49917 10.375 6.875V8.70833C10.375 9.08417 10.6867 9.39583 11.0625 9.39583C11.4383 9.39583 11.75 9.08417 11.75 8.70833V6.875C11.75 6.49917 11.4383 6.1875 11.0625 6.1875Z" fill="white"/>
<path d="M11.0625 6.18754C10.6867 6.18754 10.375 5.87587 10.375 5.50004V1.83337C10.375 1.45754 10.6867 1.14587 11.0625 1.14587C11.4383 1.14587 11.75 1.45754 11.75 1.83337V5.50004C11.75 5.87587 11.4383 6.18754 11.0625 6.18754Z" fill="white"/>
</svg>
