<?xml version="1.0" encoding="UTF-8"?>
<!DOCTYPE svg PUBLIC "-//W3C//DTD SVG 1.1//EN" "http://www.w3.org/Graphics/SVG/1.1/DTD/svg11.dtd">
<svg xmlns="http://www.w3.org/2000/svg" version="1.1" width="705px" height="706px"
     style="shape-rendering:geometricPrecision; text-rendering:geometricPrecision; image-rendering:optimizeQuality; fill-rule:evenodd; clip-rule:evenodd"
     xmlns:xlink="http://www.w3.org/1999/xlink">
  <!-- Background removed to make transparent -->
  <g>
    <path style="opacity:1" fill="#FC19CE" d="M 254.5,107.5 C 330.501,107.333 406.501,107.5 482.5,108C 504.249,149.333 525.583,190.833 546.5,232.5C 538.438,257.187 530.271,281.854 522,306.5C 520.973,309.754 519.473,312.754 517.5,315.5C 481.645,330.925 445.645,346.091 409.5,361C 404.474,362.494 400.308,361.327 397,357.5C 391.442,347.552 386.276,337.385 381.5,327C 391.849,306.469 402.349,285.969 413,265.5C 426.029,234.751 435.195,202.918 440.5,170C 440.167,169.167 439.833,168.333 439.5,167.5C 409.943,181.428 382.61,198.594 357.5,219C 337.197,237.635 317.197,256.635 297.5,276C 295.801,276.958 293.967,277.458 292,277.5C 274.509,276.188 257.009,275.355 239.5,275C 229.969,289.7 220.636,304.533 211.5,319.5C 226.419,327.874 240.919,336.874 255,346.5C 255.635,348.635 255.301,350.635 254,352.5C 249.328,359.993 244.494,367.326 239.5,374.5C 241.754,378.096 244.421,381.429 247.5,384.5C 222.193,418.974 196.693,453.308 171,487.5C 169.611,489.227 167.944,490.561 166,491.5C 157.605,483.431 150.272,474.431 144,464.5C 142.539,383.838 142.205,303.172 143,222.5C 175.647,186.85 207.98,150.85 240,114.5C 243.712,109.558 248.546,107.225 254.5,107.5 Z"/>
  </g>
  <g>
    <path style="opacity:1" fill="#FC19CE" d="M 320.5,394.5 C 345.266,410.73 369.599,427.73 393.5,445.5C 424.218,433.428 454.884,421.262 485.5,409C 489.244,408.071 492.744,408.571 496,410.5C 510.333,437.167 524.667,463.833 539,490.5C 540.422,493.03 540.755,495.697 540,498.5C 515.12,522.68 489.953,546.513 464.5,570C 396.998,570.267 329.498,570.767 262,571.5C 252.097,571.629 242.263,571.129 232.5,570C 221.648,559.145 211.481,547.645 202,535.5C 201.333,534.167 201.333,532.833 202,531.5C 230.339,492.336 258.839,453.336 287.5,414.5C 291.225,417.2 295.225,419.033 299.5,420C 306.772,411.577 313.772,403.077 320.5,394.5 Z"/>
  </g>
</svg>
