<svg width="1024" height="1024" viewBox="0 0 1024 1024" xmlns="http://www.w3.org/2000/svg" xmlns:xlink="http://www.w3.org/1999/xlink">
  <rect width="100%" height="100%" fill="black"/>
  <path d="M741.3,165.7c-1.7-3.5-5.3-5.7-9.2-5.7H291.9c-3.3,0-6.5,1.4-8.7,3.8l-143.6,159c-2,2.2-3.1,5.1-3.1,8.1l1.1,390.9c0,2.3,0.8,4.6,2.1,6.4l31.6,39.1c1.9,2.3,5.4,2.3,7.3-0.1l120.3-161.4-11.2-12.8c-2-2.3-2.1-5.7-0.2-8.2l22.8-31.1c1.9-2.6,1.1-6.3-1.7-7.8l-56.3-33.3c-2.6-1.5-3.5-5-2-7.6l42.6-69.2c1.4-2.3,3.9-3.6,6.6-3.4l76.7,5c3.1,0.2,6.1-0.9,8.3-3.1l94.9-92c0.2-0.2,0.4-0.4,0.7-0.6 30.2-23.3,63.2-44.1,97.8-61.9l9.6-4.8c1.3-0.6,2.7,0.4,2.5,1.8-8.3,58.7-27.4,116.1-50.9,166.7l-47.5,91.5 25.3,50.4c2.8,5.6,9.6,8.1,15.4,5.5l178.2-72.7c2.8-1.2,4.9-3.5,5.9-6.3l43.4-126.2c0.8-2.4,0.6-5-0.6-7.2L741.3,165.7zM633.2,642.1l-87.4,35.8c-1.2,0.5-2.5,0.3-3.5-0.4l-93.7-65.8c-2.2-1.6-5.2-1.1-6.9,1l-27.8,35.7c-1.5,1.9-4.2,2.5-6.3,1.3l-13.6-7.7-130.2,179.3c-1.8,2.5-1.7,5.9,0.4,8.2l41.3,48.5c3.3,3.9,8.1,6.1,13.2,6.1l398.4-1.7c2.5,0,4.8-1,6.6-2.7l46.6-44.4 60.4-58.2c2.3-2.2,2.9-5.6,1.3-8.3l-73.8-139.8c-2.2-4-7.1-5.7-11.3-4L633.2,642.1z" fill="#D1FF1A"/>
</svg>
