<?xml version="1.0" encoding="utf-8"?>
<svg viewBox="0 0 38 12" width="38px" height="12px" xmlns="http://www.w3.org/2000/svg">
  <defs>
    <style id="style636" type="text/css">.st0{fill:#107c10}</style>
  </defs>
  <path d="M 37.829 8.999 L 35.208 5.656 L 37.602 2.621 L 36.704 2.621 L 34.756 5.097 L 32.806 2.621 L 31.913 2.621 L 34.302 5.662 L 31.686 9.005 L 32.586 9.005 L 34.756 6.235 L 36.929 9.005 L 37.829 9.005" class="st0" id="path6965" style="fill: rgb(255, 255, 255);"/>
  <path d="M 19.972 8.999 L 17.356 5.656 L 19.745 2.621 L 18.852 2.621 L 16.902 5.097 L 14.954 2.621 L 14.056 2.621 L 16.45 5.662 L 13.829 9.005 L 14.729 9.005 L 16.902 6.235 L 19.072 9.005 L 19.972 9.005" class="st0" id="path6967" style="fill: rgb(255, 255, 255);"/>
  <path d="M 23.11 8.329 L 21.108 8.329 L 21.108 6.011 L 23.11 6.011 C 23.873 6.011 24.778 6.204 24.778 7.119 C 24.778 8.173 23.729 8.329 23.11 8.329 Z M 21.108 3.284 L 23.11 3.284 C 23.653 3.284 24.562 3.41 24.562 4.299 C 24.562 4.966 24.033 5.368 23.11 5.368 L 21.108 5.368 L 21.108 3.284 Z M 24.949 5.896 C 24.806 5.78 24.657 5.692 24.501 5.629 C 24.993 5.379 25.318 4.904 25.318 4.355 C 25.318 3.947 25.158 2.621 23.105 2.621 L 20.341 2.621 L 20.341 5.374 L 19.42 5.374 C 19.298 5.52 19.026 5.871 18.922 6.011 L 20.341 6.011 L 20.341 8.999 L 23.105 8.999 C 24.606 8.999 25.54 8.283 25.54 7.134 C 25.545 6.633 25.34 6.204 24.949 5.896" class="st0" id="path6969" style="fill: rgb(255, 255, 255);"/>
  <path d="M 29.137 8.465 C 27.674 8.465 26.654 7.374 26.654 5.806 C 26.654 4.24 27.674 3.149 29.137 3.149 C 30.594 3.149 31.609 4.24 31.609 5.806 C 31.609 7.37 30.594 8.465 29.137 8.465 Z M 29.137 2.475 C 27.217 2.475 25.882 3.844 25.882 5.806 C 25.882 7.771 27.217 9.141 29.137 9.141 C 31.048 9.141 32.382 7.771 32.382 5.806 C 32.382 3.844 31.048 2.475 29.137 2.475" class="st0" id="path6971" style="fill: rgb(255, 255, 255);"/>
  <g transform="matrix(0.012237, 0, 0, 0.012237, 0.641778, 0.683525)" id="g4146">
    <path d="M409.1 885c-69.2-6.6-139.3-31.5-199.6-70.9-50.5-33-61.9-46.5-61.9-73.6 0-54.3 59.7-149.5 161.7-257.9 58-61.6 138.7-133.8 147.4-131.9 17 3.8 152.7 136.4 203.5 198.7C740.6 648.2 777.6 729 758.8 765 744.5 792.4 656 845.9 591 866.4c-53.6 17-124 24.2-181.9 18.6zM79.5 684.1C37.6 619.7 16.4 556.2 6.1 464.5c-3.4-30.3-2.2-47.6 7.7-109.8 12.3-77.5 56.3-167.1 109.3-222.3 22.6-23.5 24.6-24.1 52.1-14.8 33.4 11.3 69 35.9 124.3 86l32.3 29.2-17.6 21.7C232.3 355.1 146 497.7 113.5 585.9 95.8 633.8 88.7 682 96.3 702c5.1 13.5.4 8.5-16.8-17.9zm736 10.9c4.1-20.2-1.1-57.4-13.4-94.9-26.5-81.2-115.4-232.4-197-335.1l-25.7-32.3 27.8-25.6c36.3-33.4 61.5-53.4 88.7-70.3 21.5-13.4 52.1-25.2 65.3-25.2 8.1 0 36.7 29.7 59.8 62.2 35.8 50.2 62.1 111.2 75.4 174.6 8.6 41 9.3 128.7 1.4 169.5-6.5 33.5-20.3 77-33.7 106.6-10.1 22.1-35.1 65-46.1 79-5.6 7-5.6 7-2.5-8.5zm-399-598.8C378.8 77 320.7 56.5 288.6 50.9c-11.3-1.9-30.4-3-42.7-2.4-26.5 1.3-25.3 0 17.2-20.1 35.3-16.7 64.8-26.5 104.8-34.9 45-9.5 129.5-9.6 173.8-.2 47.8 10.1 104.1 31.1 135.8 50.6l9.4 5.8-21.6-1.1c-43-2.2-105.6 15.2-172.9 48-20.3 9.9-37.9 17.8-39.2 17.5-1.2-.2-17.8-8.3-36.7-17.9z" class="st0" id="path4148" style="fill: rgb(255, 255, 255);"/>
  </g>
</svg>