<svg width="24" height="24" viewBox="0 0 24 24" fill="none" xmlns="http://www.w3.org/2000/svg">
<path d="M14.1167 4H2.01667C0.9075 4 0 4.9075 0 6.01667V18.1167C0 19.2258 0.9075 20.1333 2.01667 20.1333H14.1167C15.2258 20.1333 16.1333 19.2258 16.1333 18.1167V6.01667C16.1333 4.9075 15.2258 4 14.1167 4ZM11.5958 12.8733L6.55417 15.8983C5.94917 16.4025 5.04167 15.8983 5.04167 15.0917V9.04167C5.04167 8.33583 5.94917 7.83167 6.55417 8.235L11.5958 11.26C12.3017 11.6633 12.3017 12.47 11.5958 12.8733Z" fill="white"/>
<rect x="18" y="4" width="6" height="4" rx="1" fill="white"/>
<rect x="18" y="10" width="6" height="4" rx="1" fill="white"/>
<rect x="18" y="16" width="6" height="4" rx="1" fill="white"/>
</svg>
