<?xml version="1.0" encoding="UTF-8" standalone="no" ?>
<!DOCTYPE svg PUBLIC "-//W3C//DTD SVG 1.1//EN" "http://www.w3.org/Graphics/SVG/1.1/DTD/svg11.dtd">
<svg xmlns="http://www.w3.org/2000/svg" xmlns:xlink="http://www.w3.org/1999/xlink" version="1.1" width="38" height="38" viewBox="0 0 38 38" xml:space="preserve">
<desc>Created with Fabric.js 4.6.0</desc>
<defs>
</defs>
<g transform="matrix(1.19 0 0 1.19 18.97 18.97)" id="Bv0uMdEfH86XnTsNuUtm9"  >
<circle style="stroke: rgb(90,90,90); stroke-width: 1; stroke-dasharray: none; stroke-linecap: butt; stroke-dashoffset: 0; stroke-linejoin: miter; stroke-miterlimit: 4; fill: none; fill-rule: nonzero; opacity: 1;" vector-effect="non-scaling-stroke"  cx="0" cy="0" r="15.5" />
</g>
<g transform="matrix(1.21 0 0 1.21 18.97 18.97)" id="HehZZhgBVOE1qqgJvvF8U"  >
<path style="stroke: rgb(90,90,90); stroke-width: 1; stroke-dasharray: none; stroke-linecap: round; stroke-dashoffset: 0; stroke-linejoin: miter; stroke-miterlimit: 4; fill: none; fill-rule: nonzero; opacity: 1;" vector-effect="non-scaling-stroke"  transform=" translate(0, 0)" d="M 6 6 L 3.1667 3.1617 z M 4.7368 -0.63158 C 4.7368 0.7922099999999999 4.1712 2.15769 3.1644999999999994 3.1645 C 2.1576899999999997 4.1712 0.7922099999999994 4.7368 -0.6315800000000005 4.7368 C -2.0553700000000004 4.7368 -3.4208500000000006 4.1712 -4.427630000000001 3.1644999999999994 C -5.4344 2.1576899999999997 -6.000000000000001 0.7922099999999994 -6.000000000000001 -0.6315800000000005 C -6.000000000000001 -2.0553700000000004 -5.434400000000001 -3.4208500000000006 -4.427630000000001 -4.427630000000001 C -3.4208500000000006 -5.4344 -2.055370000000001 -6.000000000000001 -0.6315800000000005 -6.000000000000001 C 0.7922099999999994 -6.000000000000001 2.1576899999999997 -5.434400000000001 3.1644999999999994 -4.427630000000001 C 4.171199999999999 -3.4208500000000006 4.7368 -2.055370000000001 4.7368 -0.6315800000000005 z" stroke-linecap="round" />
</g>
</svg>