<svg width="16" height="16" viewBox="0 0 16 16" fill="none" xmlns="http://www.w3.org/2000/svg">
<path fill-rule="evenodd" clip-rule="evenodd" d="M5.75 13.25L2.75 10.25C2.75 10.0002 2.99975 9.5 3.5 8.75L0.5 8L2 5.75L5 6.5C8 2 12.5 0.5 15.5 0.5C15.5 3.5 14 8 9.5 11L10.25 14L8 15.5L7.25 12.5C6.5 13.0002 5.99975 13.25 5.75 13.25ZM10.625 6.5C10.9234 6.5 11.2095 6.38147 11.4205 6.1705C11.6315 5.95952 11.75 5.67337 11.75 5.375C11.75 5.07663 11.6315 4.79048 11.4205 4.5795C11.2095 4.36853 10.9234 4.25 10.625 4.25C10.3266 4.25 10.0405 4.36853 9.8295 4.5795C9.61853 4.79048 9.5 5.07663 9.5 5.375C9.5 5.67337 9.61853 5.95952 9.8295 6.1705C10.0405 6.38147 10.3266 6.5 10.625 6.5V6.5ZM2 11L2.9375 11.9375C2.43725 12.4377 2.12525 13.1247 2 14C2.87525 13.8748 3.56225 13.5627 4.0625 13.0625L5 14C4.00025 14.9997 2.50025 15.5 0.5 15.5C0.5 13.4997 1.00025 11.9997 2 11Z" fill="#303236"/>
</svg>
