<svg width="10" height="20" viewBox="0 0 10 20" fill="none" xmlns="http://www.w3.org/2000/svg">
<path d="M8.33333 13.3334C8.33333 13.8594 7.96023 14.2858 7.5 14.2858C7.03977 14.2858 6.66667 13.8594 6.66667 13.3334C6.66667 12.8074 7.03977 12.381 7.5 12.381C7.96023 12.381 8.33333 12.8074 8.33333 13.3334Z" fill="black"/>
<path d="M2.5 14.2858C2.96023 14.2858 3.33333 13.8594 3.33333 13.3334C3.33333 12.8074 2.96023 12.381 2.5 12.381C2.03977 12.381 1.66667 12.8074 1.66667 13.3334C1.66667 13.8594 2.03977 14.2858 2.5 14.2858Z" fill="black"/>
<path fill-rule="evenodd" clip-rule="evenodd" d="M10 0H0V3.80955L2.42254 5.6553C0.97084 7.78357 0 11.2549 0 13.3333C0 16.4892 2.23857 20 5 20C7.76143 20 10 16.4892 10 13.3333C10 11.2549 9.02913 7.78357 7.57746 5.6553L10 3.80955V0ZM1.66667 2.85716H4.16667V4.76194H3.33333L1.66667 3.80955V2.85716ZM5.83333 2.85716H8.33333V3.80955L6.66667 4.76194H5.83333V2.85716ZM7.5 15.2382C8.42049 15.2382 9.16667 14.3854 9.16667 13.3334V11.4286H7.5C6.57951 11.4286 5.83333 12.2814 5.83333 13.3334C5.83333 14.3854 6.57951 15.2382 7.5 15.2382ZM4.16667 13.3334C4.16667 14.3854 3.42049 15.2382 2.5 15.2382C1.57951 15.2382 0.833333 14.3854 0.833333 13.3334V11.4286H2.5C3.42049 11.4286 4.16667 12.2814 4.16667 13.3334ZM6.12795 11.0101C5.96525 10.8242 5.96525 10.5227 6.12795 10.3367L7.30647 8.98983C7.4692 8.80386 7.733 8.80386 7.89574 8.98983C8.05845 9.17579 8.05845 9.47731 7.89574 9.66327L6.71722 11.0101C6.55449 11.1961 6.29069 11.1961 6.12795 11.0101ZM2.62199 8.99005C2.45928 8.80408 2.19546 8.80408 2.03275 8.99005C1.87002 9.17601 1.87002 9.47752 2.03275 9.66349L3.21126 11.0104C3.37397 11.1963 3.6378 11.1963 3.80051 11.0104C3.96324 10.8244 3.96324 10.5229 3.80051 10.3369L2.62199 8.99005Z" fill="black"/>
</svg>
