<svg width="20" height="18" viewBox="0 0 20 18" fill="none" xmlns="http://www.w3.org/2000/svg">
<path d="M15.8039 0.280689C15.4573 -0.0935629 14.8953 -0.0935629 14.5487 0.280689L13.7232 1.17204L15.5626 3.15809L16.3881 2.26673C16.7347 1.89248 16.7347 1.2857 16.3881 0.911446L15.8039 0.280689Z" fill="black"/>
<path d="M16.7322 5.74238L11.8859 0.509584L6.8651 5.93076L11.6121 11.0563L12.4688 14.7562L20 6.62447L16.7322 5.74238Z" fill="black"/>
<path d="M7.43321 7.97448L9.27123 9.96201L2.09777 17.7191C1.75138 18.0936 1.1899 18.0936 0.843566 17.7191L0.259748 17.0878C-0.0865825 16.7133 -0.0865825 16.1061 0.259748 15.7316L7.43321 7.97448Z" fill="black"/>
</svg>
