<svg width="20" height="12" viewBox="0 0 20 12" fill="none" xmlns="http://www.w3.org/2000/svg">
<path d="M2.81383 3.64904L0.918935 0.0224525H3.67241L4.19057 1.01414L2.81383 3.64904Z" fill="black"/>
<path d="M5.73796 0.458329C5.97226 0.00990591 6.5063 -0.134091 6.93077 0.136702L7.36839 0.415882C7.79286 0.686676 7.94702 1.26972 7.71272 1.71814L2.63301 11.44H0L5.73796 0.458329Z" fill="black"/>
<path d="M9.59113 2.31934C9.16666 2.04855 8.63262 2.19255 8.39832 2.64097L5.82642 7.56325C5.59212 8.01167 5.74628 8.59471 6.17075 8.86551L6.60837 9.14469C7.03284 9.41548 7.56688 9.27148 7.80118 8.82306L10.3731 3.90078C10.6074 3.45236 10.4532 2.86932 10.0287 2.59852L9.59113 2.31934Z" fill="black"/>
<path d="M13.3916 2.31934C12.9672 2.04855 12.4331 2.19255 12.1988 2.64097L9.62692 7.56325C9.39262 8.01167 9.54678 8.59471 9.97125 8.86551L10.4089 9.14469C10.8333 9.41548 11.3674 9.27148 11.6017 8.82306L14.1736 3.90078C14.4079 3.45236 14.2537 2.86932 13.8292 2.59852L13.3916 2.31934Z" fill="black"/>
<path d="M16.4985 11.4409L15.8138 10.1305L17.1905 7.49558L19.2519 11.4409H16.4985Z" fill="black"/>
<path d="M19.5383 12L19.5427 11.9972L19.5383 11.9889V12Z" fill="black"/>
<path d="M17.367 0.0228995L12.287 9.74535C12.0527 10.1938 12.2069 10.7768 12.6313 11.0476L13.0689 11.3268C13.4934 11.5976 14.0275 11.4536 14.2618 11.0052L20 0.0228995H17.367Z" fill="black"/>
</svg>
