<svg width="20" height="14" viewBox="0 0 20 14" fill="none" xmlns="http://www.w3.org/2000/svg">
<path d="M14.5455 0H12.7273V0.875H10.9091V1.75H9.09091V0.875H7.27273V0H5.45455V0.875H3.63636V1.75L0.866699 5.74874C1.8366 4.89549 3.12789 4.375 4.54545 4.375C6.56439 4.375 8.32719 5.43077 9.27035 7H10.7298C11.6728 5.43077 13.4356 4.375 15.4545 4.375C16.8721 4.375 18.1634 4.89551 19.1334 5.7488L16.3636 1.75V0.875H14.5455V0Z" fill="black"/>
<path fill-rule="evenodd" clip-rule="evenodd" d="M4.54545 14C7.05589 14 9.09091 12.0413 9.09091 9.625C9.09091 7.20875 7.05589 5.25 4.54545 5.25C2.03502 5.25 0 7.20875 0 9.625C0 12.0413 2.03502 14 4.54545 14ZM5.45455 7C6.22647 7 6.94225 7.23153 7.53107 7.62638C6.874 6.71886 5.78181 6.125 4.54545 6.125C2.53718 6.125 0.909091 7.69201 0.909091 9.625C0.909091 10.815 1.5261 11.8663 2.46893 12.4986C2.05877 11.932 1.81818 11.243 1.81818 10.5C1.81818 8.56701 3.44627 7 5.45455 7Z" fill="black"/>
<path fill-rule="evenodd" clip-rule="evenodd" d="M15.4545 14C17.965 14 20 12.0413 20 9.625C20 7.20875 17.965 5.25 15.4545 5.25C12.9441 5.25 10.9091 7.20875 10.9091 9.625C10.9091 12.0413 12.9441 14 15.4545 14ZM16.3636 7C17.1356 7 17.8513 7.23153 18.4402 7.62638C17.7831 6.71886 16.6909 6.125 15.4545 6.125C13.4463 6.125 11.8182 7.69201 11.8182 9.625C11.8182 10.815 12.4352 11.8663 13.378 12.4986C12.9679 11.932 12.7273 11.243 12.7273 10.5C12.7273 8.56701 14.3554 7 16.3636 7Z" fill="black"/>
</svg>
