<svg width="16" height="20" viewBox="0 0 16 20" fill="none" xmlns="http://www.w3.org/2000/svg">
<path d="M13.1765 2.27273L14.5882 0L16 2.27273C16 3.02584 15.3679 3.63636 14.5882 3.63636C13.8085 3.63636 13.1765 3.02584 13.1765 2.27273Z" fill="black"/>
<path d="M14.5882 3.63636H14.1699C14.1699 4.59226 13.3523 5.45455 12.2353 5.45455C11.6869 5.45455 11.2106 5.24669 10.8679 4.92196L10.8673 4.92107C10.7777 4.83604 10.6972 4.74301 10.6269 4.64361L10.6461 4.62506C10.6118 4.58503 10.5763 4.54596 10.5397 4.5079C10.2334 4.18951 9.8493 3.94178 9.41665 3.79321C9.44427 4.26355 9.59528 4.70201 9.83892 5.07886C9.93196 5.16713 10.0152 5.26402 10.0873 5.3677L10.0688 5.3855C10.5868 5.98338 11.3651 6.36364 12.2353 6.36364C13.7947 6.36364 15.0588 5.14259 15.0588 3.63636H14.5882Z" fill="black"/>
<path d="M8.47058 4.54545C7.35355 4.54545 6.53593 5.40774 6.53593 6.36364H9.41184V7.88514C11.6376 8.90648 13.1765 11.0978 13.1765 13.6364C13.1765 17.1509 10.2268 20 6.58825 20C2.94966 20 0 17.1509 0 13.6364C0 11.0978 1.5389 8.90642 3.76477 7.8851V6.36364H5.64704C5.64704 4.85741 6.91118 3.63636 8.47058 3.63636C8.80231 3.63636 9.12096 3.6917 9.41665 3.79321C9.44423 4.26332 9.59481 4.70151 9.83821 5.07824C9.49545 4.75339 9.01911 4.54545 8.47058 4.54545Z" fill="black"/>
</svg>
