<svg width="10" height="22" viewBox="0 0 10 22" fill="none" xmlns="http://www.w3.org/2000/svg">
<path fill-rule="evenodd" clip-rule="evenodd" d="M0 0L3 2V5.76324C3.30347 5.50714 3.64001 5.30769 4 5.177V2C4 1.44771 4.44775 1 5 1C5.55225 1 6 1.44771 6 2V5.17694C6.35999 5.3076 6.69653 5.50705 7 5.76311V2L10 0V5L7.69824 6.53448C8.2467 7.3206 8.57898 8.34863 8.57898 9.47368V18.4211C8.57898 20.3976 6.97668 22 5.00012 22C3.02344 22 1.42114 20.3976 1.42114 18.4211V9.47368C1.42114 8.34868 1.75342 7.32066 2.30188 6.53456L0 5V0ZM2.71753 19.2483C3.03247 19.3943 3.37659 19.4747 3.73682 19.4747C5.24841 19.4747 6.47375 18.0608 6.47375 16.3164V8.42181C6.47375 8.27927 6.46851 8.13857 6.45825 8C7.22656 8.6058 7.73694 9.67615 7.73694 10.8955V17.7376C7.73694 19.2493 6.5116 20.4746 5 20.4746C4.04688 20.4746 3.20752 19.9874 2.71753 19.2483Z" fill="black"/>
</svg>
