<svg width="16" height="16" viewBox="0 0 16 16" fill="none" xmlns="http://www.w3.org/2000/svg">
<path fill-rule="evenodd" clip-rule="evenodd" d="M4 2.8631C4 1.65022 4.98323 0.666992 6.19611 0.666992H11.1372C12.3501 0.666992 13.3333 1.65022 13.3333 2.8631C13.3333 2.90168 13.3323 2.94003 13.3304 2.97812C13.3323 3.01283 13.3333 3.04779 13.3333 3.08297V6.49398L13.3333 6.51025V8.00052C13.3333 8.87134 12.7768 9.61216 12 9.88672V10.667C12 11.0352 11.7015 11.3337 11.3333 11.3337H6C5.63181 11.3337 5.33333 11.0352 5.33333 10.667V9.88672C4.55654 9.61216 4 8.87134 4 8.00052L4 8.00033H3.33333C2.59695 8.00033 2 7.40337 2 6.66699V4.66699C2 3.93061 2.59695 3.33366 3.33333 3.33366H4L4 3.08298C4 3.04758 4.00098 3.01242 4.00293 2.97751C4.00098 2.93962 4 2.90148 4 2.8631ZM5.33333 12.667C5.33333 12.2988 5.63181 12.0003 6 12.0003H11.3333C11.7015 12.0003 12 12.2988 12 12.667V14.667C12 15.0352 11.7015 15.3337 11.3333 15.3337H6C5.63181 15.3337 5.33333 15.0352 5.33333 14.667V12.667ZM7.33317 13.667C7.33317 13.1147 7.78089 12.667 8.33317 12.667H11.3332V14.667H8.33317C7.78089 14.667 7.33317 14.2193 7.33317 13.667Z" fill="black"/>
</svg>
