<svg width="16" height="18" viewBox="0 0 16 18" fill="none" xmlns="http://www.w3.org/2000/svg">
<path d="M2.4 0C1.73726 2.49689e-05 1.2 1.83158 1.2 4.09091H3.59995C3.59995 1.83158 3.06274 2.49689e-05 2.4 0Z" fill="black"/>
<path d="M6.8 4.09091C6.8 1.83158 7.33726 2.49689e-05 8 0C8.66274 2.49689e-05 9.19995 1.83158 9.19995 4.09091H6.8Z" fill="black"/>
<path d="M9.2 4.90909V7.36364L9.8 8.59091H6.2L6.8 7.36364V4.90909H9.2Z" fill="black"/>
<path d="M9.8 9V16.3636H6.2V9H9.8Z" fill="black"/>
<path d="M10.4 18V17.1818H5.6V18H10.4Z" fill="black"/>
<path d="M12.4 4.09091C12.4 1.83158 12.9373 2.49689e-05 13.6 0C14.2627 2.49689e-05 14.8 1.83158 14.8 4.09091H12.4Z" fill="black"/>
<path d="M14.8 7.36364V4.90909H12.4V7.36364L11.8 8.59091H15.4L14.8 7.36364Z" fill="black"/>
<path d="M15.4 16.3636V9H11.8V16.3636H15.4Z" fill="black"/>
<path d="M16 17.1818V18H11.2V17.1818H16Z" fill="black"/>
<path d="M3.6 4.90909V7.36364L4.2 8.59091H0.6L1.2 7.36364V4.90909H3.6Z" fill="black"/>
<path d="M0.6 9H4.2V16.3636H0.6V9Z" fill="black"/>
<path d="M4.8 17.1818H0V18H4.8V17.1818Z" fill="black"/>
</svg>
