<svg width="14" height="20" viewBox="0 0 14 20" fill="none" xmlns="http://www.w3.org/2000/svg">
<path d="M6.88109 14.677L11.7885 12.7832C12.0859 12.6254 12.6807 12.0257 12.6807 10.8894C12.6807 10.3791 12.3927 9.99097 12.0651 9.54945C11.4809 8.7621 10.7706 7.80482 11.3423 5.68142C10.6722 6.25033 9.39822 7.63958 9.15307 9.01746C9.18566 8.04898 8.94441 6.33536 7.77332 4.73451C6.38792 2.84071 6.60125 0.789086 6.88109 0C6.58368 0.315634 5.98884 1.42035 5.98884 3.31416C5.98884 4.64813 6.13051 5.23039 6.25418 5.7387C6.34997 6.13244 6.43497 6.4818 6.43497 7.10177C6.43497 8.23805 5.54272 9.15339 5.09659 9.46903C5.09659 9.15339 4.91814 8.33274 4.20434 7.57522C3.49054 6.8177 3.01468 5.68142 2.86597 5.20796C3.16339 6.15487 3.57977 8.23805 2.86597 8.99558C1.97372 9.94248 1.08147 11.3628 1.97372 12.7832L6.88109 14.677Z" fill="black"/>
<path d="M0.341109 14.4959C0.402773 14.2517 0.644157 14.1082 0.880255 14.1753L13.6682 17.8117C13.9043 17.8788 14.0457 18.1312 13.984 18.3755L13.659 19.6628C13.5973 19.9071 13.3559 20.0506 13.1198 19.9835L0.331915 16.3471C0.095816 16.2799 -0.045592 16.0275 0.0160717 15.7833L0.341109 14.4959Z" fill="black"/>
<path d="M1.9752 17.4116C1.89798 17.3897 1.81644 17.3897 1.73923 17.4116L0.325596 17.8136C0.0919613 17.8801 -0.0466324 18.1274 0.0143878 18.3691L0.339401 19.6564C0.40171 19.9032 0.648005 20.0496 0.886575 19.9818L4.40112 18.9824C4.83512 18.859 4.83512 18.2249 4.40112 18.1015L1.9752 17.4116Z" fill="black"/>
<path d="M11.9779 16.7607C12.0552 16.7827 12.1367 16.7827 12.2139 16.7607L13.6744 16.3454C13.908 16.279 14.0466 16.0316 13.9856 15.7899L13.6606 14.5027C13.5983 14.2559 13.352 14.1094 13.1134 14.1772L9.55201 15.19C9.11802 15.3134 9.11802 15.9475 9.55201 16.0709L11.9779 16.7607Z" fill="black"/>
</svg>
