<svg width="12" height="18" viewBox="0 0 12 18" fill="none" xmlns="http://www.w3.org/2000/svg">
<path d="M0.75 0H3V2.40151H4.5V0H7.5V2.40151H9V0H11.25V2.40151C11.25 5.30284 8.8995 7.65482 6 7.65482C3.1005 7.65482 0.75 5.30284 0.75 2.40151V0Z" fill="black"/>
<path d="M5.99995 8.49429C5.08782 8.49429 4.2232 8.31872 3.44903 8.00461L1.87181 13.1874C1.68865 13.7892 2.10168 14.4092 2.68569 14.4092H9.31426C9.89826 14.4092 10.3113 13.7892 10.1281 13.1874L8.55092 8.00461C7.77675 8.31872 6.91213 8.49429 5.99995 8.49429Z" fill="black"/>
<path d="M0.857143 15.2096C0.383737 15.2096 0 15.626 0 16.1397V17.0699C0 17.5836 0.383737 18 0.857143 18H11.1429C11.6163 18 12 17.5836 12 17.0699V16.1397C12 15.626 11.6163 15.2096 11.1429 15.2096H0.857143Z" fill="black"/>
</svg>
