<svg width="20" height="14" viewBox="0 0 20 14" fill="none" xmlns="http://www.w3.org/2000/svg">
<path fill-rule="evenodd" clip-rule="evenodd" d="M17.2727 7C17.2727 9.41625 15.2376 11.375 12.7273 11.375C10.2169 11.375 8.18182 9.41625 8.18182 7C8.18182 4.58375 10.2169 2.625 12.7273 2.625C15.2376 2.625 17.2727 4.58375 17.2727 7ZM13.3179 8.27824C13.3179 8.08451 13.2717 7.93248 13.1792 7.82213C13.0867 7.71177 12.9241 7.60754 12.6917 7.50946C12.4592 7.41137 12.2445 7.31205 12.0477 7.21151C11.8508 7.11096 11.6812 6.99449 11.5389 6.86207C11.3965 6.72963 11.2875 6.57637 11.2115 6.40226C11.1356 6.22815 11.0977 6.01725 11.0977 5.76957C11.0977 5.35514 11.2329 5.01428 11.5033 4.74698C11.7737 4.47723 12.1342 4.32029 12.585 4.27615V3.5H13.1507V4.29086C13.5848 4.35707 13.9252 4.54221 14.1719 4.84629C14.4209 5.14793 14.5455 5.5317 14.5455 5.99764H13.3428C13.3428 5.7426 13.2954 5.54642 13.2005 5.4091C13.1056 5.27176 12.9704 5.2031 12.7949 5.2031C12.6383 5.2031 12.5161 5.25459 12.4284 5.3576C12.343 5.45814 12.3003 5.59791 12.3003 5.77693C12.3003 5.9584 12.3501 6.10308 12.4497 6.21098C12.5494 6.31643 12.7095 6.4182 12.9301 6.51629C13.1507 6.61193 13.3583 6.71248 13.5527 6.81791C13.7496 6.92092 13.9192 7.03863 14.0616 7.17105C14.2039 7.30346 14.3154 7.45795 14.396 7.63453C14.4767 7.81109 14.517 8.02321 14.517 8.27088C14.517 8.69023 14.3877 9.03232 14.1291 9.29717C13.873 9.56201 13.5231 9.7165 13.0795 9.76064V10.5H12.5138V9.75697C11.9967 9.70056 11.5993 9.51787 11.3219 9.20888C11.0467 8.89744 10.9091 8.48791 10.9091 7.98029H12.1082C12.1082 8.25986 12.1675 8.4732 12.286 8.62033C12.4071 8.76502 12.5778 8.83736 12.7985 8.83736C12.9598 8.83736 13.0867 8.78832 13.1792 8.69023C13.2717 8.58969 13.3179 8.45236 13.3179 8.27824Z" fill="black"/>
<path fill-rule="evenodd" clip-rule="evenodd" d="M12.7273 14C16.7439 14 20 10.866 20 7C20 3.13401 16.7439 0 12.7273 0C8.71066 0 5.45455 3.13401 5.45455 7C5.45455 10.866 8.71066 14 12.7273 14ZM12.7273 12.25C15.7397 12.25 18.1818 9.89949 18.1818 7C18.1818 4.10051 15.7397 1.75 12.7273 1.75C9.7148 1.75 7.27273 4.10051 7.27273 7C7.27273 9.89949 9.7148 12.25 12.7273 12.25Z" fill="black"/>
<path d="M0.454545 0.875H7.58423C6.67264 1.585 5.92274 2.47972 5.39595 3.5H0.454545C0.203525 3.5 0 3.30412 0 3.0625V1.3125C0 1.07088 0.203525 0.875 0.454545 0.875Z" fill="black"/>
<path d="M0.454545 4.375H5.01104C4.70953 5.19605 4.54545 6.07958 4.54545 7H0.454545C0.203525 7 0 6.80412 0 6.5625V4.8125C0 4.57088 0.203525 4.375 0.454545 4.375Z" fill="black"/>
<path d="M4.59539 7.875H0.454545C0.203525 7.875 0 8.07088 0 8.3125V10.0625C0 10.3041 0.203525 10.5 0.454545 10.5H5.39595C4.97964 9.69369 4.70265 8.80896 4.59539 7.875Z" fill="black"/>
<path d="M0.454545 11.375H5.92324C6.69123 12.4793 7.74175 13.3862 8.97528 14H0.454545C0.203525 14 0 13.8041 0 13.5625V11.8125C0 11.5709 0.203525 11.375 0.454545 11.375Z" fill="black"/>
</svg>
