<svg width="18" height="18" viewBox="0 0 18 18" fill="none" xmlns="http://www.w3.org/2000/svg">
<path fill-rule="evenodd" clip-rule="evenodd" d="M5.14976 2.94936L2.94971 5.14941L6.17323 8.37294L8.37329 6.17289L5.14976 2.94936ZM11.8208 9.62038L9.62073 11.8204L12.8499 15.0497L15.05 12.8496L11.8208 9.62038Z" fill="black"/>
<circle cx="5.14976" cy="2.94922" r="1.55567" transform="rotate(-45 5.14976 2.94922)" fill="black"/>
<circle cx="15.0502" cy="12.8496" r="1.55567" transform="rotate(-45 15.0502 12.8496)" fill="black"/>
<circle cx="2.95054" cy="5.14941" r="1.55567" transform="rotate(-45 2.95054 5.14941)" fill="black"/>
<circle cx="12.8504" cy="15.0498" r="1.55567" transform="rotate(-45 12.8504 15.0498)" fill="black"/>
<rect x="12.8506" y="2.9502" width="3.11135" height="14.0011" transform="rotate(45 12.8506 2.9502)" fill="black"/>
<circle cx="15.0508" cy="5.15025" r="1.55567" transform="rotate(45 15.0508 5.15025)" fill="black"/>
<circle cx="5.15039" cy="15.0506" r="1.55567" transform="rotate(45 5.15039 15.0506)" fill="black"/>
<circle cx="12.8506" cy="2.95005" r="1.55567" transform="rotate(45 12.8506 2.95005)" fill="black"/>
<circle cx="2.9502" cy="12.8504" r="1.55567" transform="rotate(45 2.9502 12.8504)" fill="black"/>
</svg>
