<svg width="16" height="14" viewBox="0 0 16 14" fill="none" xmlns="http://www.w3.org/2000/svg">
<path fill-rule="evenodd" clip-rule="evenodd" d="M9.45421 1.33332C9.45421 1.9075 9.05828 2.39691 8.50302 2.58465L9.85807 5.95611L11.1708 4.51211C11.0107 4.38982 10.9088 4.20568 10.9088 3.99972C10.9088 3.63153 11.2344 3.33306 11.6361 3.33306C12.0378 3.33306 12.3634 3.63153 12.3634 3.99972C12.3634 4.30439 12.1404 4.56132 11.8359 4.6409L12.5976 7.08459L14.6805 5.72076C14.5953 5.61156 14.5451 5.47779 14.5451 5.33329C14.5451 4.9651 14.8708 4.66663 15.2724 4.66663C15.6741 4.66663 15.9997 4.9651 15.9997 5.33329C15.9997 5.70147 15.6741 5.99995 15.2724 5.99995C15.2162 5.99995 15.1614 5.99409 15.1088 5.98301L13.0907 13.9992L13.0911 14.0001H2.90929L2.91021 13.9978L2.90912 13.9998L0.890884 5.98301C0.838296 5.99409 0.783529 5.99995 0.727271 5.99995C0.32561 5.99995 0 5.70147 0 5.33329C0 4.9651 0.32561 4.66663 0.727271 4.66663C1.12893 4.66663 1.45454 4.9651 1.45454 5.33329C1.45454 5.47779 1.40438 5.61156 1.31915 5.72076L3.40251 7.08485L4.16425 4.64098C3.85959 4.56148 3.6365 4.30448 3.6365 3.99972C3.6365 3.63153 3.96211 3.33306 4.36377 3.33306C4.76543 3.33306 5.09104 3.63153 5.09104 3.99972C5.09104 4.2056 4.98923 4.38968 4.82925 4.51197L6.14225 5.95626L7.49724 2.58496C6.9415 2.39745 6.54513 1.90781 6.54513 1.33332C6.54513 0.596948 7.19635 0 7.99967 0C8.80299 0 9.45421 0.596948 9.45421 1.33332ZM8.00002 5.99962L5.8182 7.9996L8.00002 12.6662L10.1818 7.9996L8.00002 5.99962Z" fill="black"/>
</svg>
