<svg width="16" height="16" viewBox="0 0 16 16" fill="none" xmlns="http://www.w3.org/2000/svg">
<path fill-rule="evenodd" clip-rule="evenodd" d="M15.3332 8.00033C15.3332 8.74668 15.2217 9.46699 15.0144 10.1455L14.6667 10.6672L13.3333 12.6672L13.3333 15.3338H11.3333V12.6672H10V15.3338H8.66667V12.6672H7.33333V15.3338H6V12.6672H4.66667V15.3338H2.66667L2.66667 12.6672L1.33333 10.6672L0.984973 10.1446C0.777902 9.46635 0.666504 8.74635 0.666504 8.00033C0.666504 3.95024 3.94975 0.666992 7.99984 0.666992C12.0499 0.666992 15.3332 3.95024 15.3332 8.00033ZM6.66667 10.6672H9.33333L8.66667 8.66716H7.33333L6.66667 10.6672ZM2.99996 5.00053C2.84654 5.15395 2.84654 5.40269 2.99996 5.55611L4.111 6.66715L2.99977 7.77838C2.84635 7.9318 2.84635 8.18055 2.99977 8.33397C3.1532 8.48739 3.40194 8.48739 3.55536 8.33397L4.66659 7.22274L5.77789 8.33405C5.93132 8.48747 6.18006 8.48747 6.33348 8.33405C6.4869 8.18062 6.4869 7.93188 6.33348 7.77846L5.22218 6.66715L6.33329 5.55604C6.48672 5.40261 6.48672 5.15387 6.33329 5.00045C6.17987 4.84703 5.93113 4.84703 5.77771 5.00045L4.66659 6.11157L3.55555 5.00053C3.40213 4.84711 3.15338 4.84711 2.99996 5.00053ZM9.2428 5.08175C9.09684 5.22771 9.09684 5.46435 9.2428 5.61031L10.2996 6.66715L9.24266 7.72414C9.0967 7.8701 9.0967 8.10674 9.24266 8.2527C9.38861 8.39866 9.62526 8.39866 9.77122 8.2527L10.8282 7.19571L11.8856 8.25311C12.0316 8.39907 12.2682 8.39907 12.4142 8.25311C12.5601 8.10715 12.5601 7.87051 12.4142 7.72455L11.3568 6.66715L12.414 5.6099C12.56 5.46394 12.56 5.2273 12.414 5.08134C12.2681 4.93538 12.0314 4.93538 11.8855 5.08134L10.8282 6.13859L9.77136 5.08175C9.6254 4.93579 9.38875 4.93579 9.2428 5.08175Z" fill="black"/>
</svg>
