<svg width="20" height="18" viewBox="0 0 20 18" fill="none" xmlns="http://www.w3.org/2000/svg">
<path fill-rule="evenodd" clip-rule="evenodd" d="M3.16221 0.303317L0.274623 3.4927C-0.0609788 3.86338 -0.0928707 4.45258 0.200355 4.86479L9.26275 17.6042C9.63814 18.1319 10.3619 18.1319 10.7372 17.6042L19.7996 4.86479C20.0929 4.45258 20.061 3.86338 19.7254 3.4927L16.8378 0.303317C16.662 0.109106 16.4235 0 16.1748 0H3.82519C3.57653 0 3.33805 0.109106 3.16221 0.303317ZM6.37701 1.03551H13.6428L12.8766 4.14218H7.14322L6.37701 1.03551ZM15.4888 1.15606L14.733 4.14218H18.4381L15.4888 1.15606ZM7.65404 6.21336H12.3658L10.1006 15.3977L9.99983 15.5338L9.92925 15.4385L7.65404 6.21336ZM14.2088 6.21336L12.8101 11.7399L16.904 6.21336H14.2088ZM4.52695 1.1398L1.56156 4.14218H5.28681L4.52695 1.1398ZM5.811 6.21336H3.09564L7.22017 11.7813L5.811 6.21336Z" fill="black"/>
</svg>
