<svg width="10" height="18" viewBox="0 0 10 18" fill="none" xmlns="http://www.w3.org/2000/svg">
<path d="M6.62427 12.2869C6.62427 11.7888 6.49706 11.3978 6.24266 11.114C5.98826 10.8303 5.54142 10.5623 4.90215 10.31C4.26288 10.0578 3.67254 9.80242 3.13112 9.54388C2.58969 9.28534 2.12329 8.98581 1.7319 8.6453C1.34051 8.30478 1.04044 7.91067 0.831703 7.46295C0.622962 7.01524 0.518591 6.47294 0.518591 5.83605C0.518591 4.77036 0.890411 3.89385 1.63405 3.20652C2.37769 2.51287 3.36921 2.1093 4.60861 1.9958V0H6.16438V2.03363C7.35812 2.20389 8.29419 2.67998 8.9726 3.4619C9.65753 4.23752 10 5.22438 10 6.42249H6.69276C6.69276 5.76668 6.5623 5.26222 6.30137 4.90909C6.04044 4.55596 5.66862 4.3794 5.18591 4.3794C4.75538 4.3794 4.41944 4.51182 4.17808 4.77667C3.94325 5.03521 3.82583 5.39464 3.82583 5.85497C3.82583 6.3216 3.96282 6.69364 4.23679 6.9711C4.51076 7.24225 4.95108 7.50394 5.55773 7.75617C6.16438 8.0021 6.73516 8.26064 7.27006 8.53179C7.81148 8.79664 8.27789 9.09932 8.66928 9.43983C9.06067 9.78035 9.36725 10.1776 9.58904 10.6316C9.81083 11.0857 9.92172 11.6311 9.92172 12.268C9.92172 13.3463 9.56621 14.226 8.85519 14.907C8.15069 15.588 7.18852 15.9853 5.96869 16.0988V18H4.41292V16.0893C2.99087 15.9443 1.89824 15.4745 1.13503 14.68C0.378343 13.8791 0 12.8261 0 11.5208H3.29746C3.29746 12.2396 3.46053 12.7882 3.78669 13.1666C4.11937 13.5386 4.58904 13.7246 5.19569 13.7246C5.63927 13.7246 5.98826 13.5985 6.24266 13.3463C6.49706 13.0878 6.62427 12.7346 6.62427 12.2869Z" fill="black"/>
</svg>
