<svg width="18" height="16" viewBox="0 0 18 16" fill="none" xmlns="http://www.w3.org/2000/svg">
<path fill-rule="evenodd" clip-rule="evenodd" d="M6.29612 7.51109L8.97108 0L11.646 7.51109L14.6691 3.99996L14.0864 11.4449L18 7.95982L15.4832 16H2.459L0 7.95982L3.85141 11.3895L3.27302 3.99996L6.29612 7.51109ZM6.70475 9.12429L8.96026 3.19995L11.2272 9.12778L13.4482 6.79985L13.1085 13.1419L16.2972 10.3998L14.2622 15.9998H13.4482L14.6692 12.7998L12.2272 14.9331L12.2272 9.59979L10.3278 12.0887L8.97113 7.19989L7.51827 12.4353L5.71506 9.59988L5.715 14.933L3.27305 12.7998L4.49406 15.9998L3.67999 15.9997L1.64501 10.3998L4.83371 13.1419L4.49415 6.7999L6.70475 9.12429Z" fill="black"/>
</svg>
