<svg width="18" height="20" viewBox="0 0 18 20" fill="none" xmlns="http://www.w3.org/2000/svg">
<path fill-rule="evenodd" clip-rule="evenodd" d="M8.14055 12.6446L8.98672 14.5455L9.8329 12.6446L10.219 11.7772L13.091 12.107L11.4049 9.93718L13.091 7.76748L10.1659 8.10335L8.98672 5.45455L7.80888 8.10044L4.90909 7.76748L6.59516 9.93718L4.90903 12.107L7.7557 11.7801L8.14055 12.6446ZM8.95536 12.6446L8.99215 12.7273L9.02894 12.6446H8.95536ZM9.02894 12.6446H8.95536L8.25357 11.0681L6.54552 11.2643L7.5572 9.96239L6.54544 8.6604L8.28547 8.8602L8.51375 8.34739L8.99215 7.27273L9.47042 8.34711L9.69959 8.86191L11.4546 8.6604L10.4428 9.96231L11.4546 11.2643L9.7315 11.0664L9.02894 12.6446Z" fill="black"/>
<path fill-rule="evenodd" clip-rule="evenodd" d="M6.37906 5.82162L8.97061 0L11.565 5.82804L18 5.08916L14.2911 9.86188L18 14.6346L11.682 13.9092L8.97061 20L6.26207 13.9156L0 14.6346L3.70886 9.86188L1.22548e-05 5.08916L6.37906 5.82162ZM7.0941 6.96104L8.97881 2.72727L10.8656 6.9657L15.5457 6.42832L12.8481 9.89964L15.5455 13.3708L10.9507 12.8432L8.97881 17.2727L7.00903 12.8478L2.45471 13.3708L5.15212 9.89964L2.45458 6.42832L7.0941 6.96104Z" fill="black"/>
</svg>
