<svg width="14" height="20" viewBox="0 0 14 20" fill="none" xmlns="http://www.w3.org/2000/svg">
<path d="M8.13961 4.15996C7.35822 1.98398 8.57372 0.426669 9.27914 7.50054e-06C8.13961 0.160006 5.6 1.08799 4.55814 3.51997C3.53253 5.914 4.02134 7.31575 4.35487 8.27222C4.44486 8.53028 4.52355 8.75593 4.55814 8.9599L4.60164 8.98505C4.70178 10.1026 4.5357 12.1604 2.93023 12.1604C1.30265 12.1604 1.01991 10.0455 1.3486 9.05956C0.500658 10.1976 0 11.6014 0 13.1201C0 16.9198 3.13401 20 7 20C10.866 20 14 16.9198 14 13.1201C14 10.8332 12.8648 8.80701 11.118 7.55603C11.1746 7.74716 11.2145 7.94789 11.2326 8.16037C11.3725 9.81119 10.0683 10.0426 9.59644 8.95634L9.60472 8.9599C9.48741 7.69158 9.28555 7.17108 8.81638 5.96129C8.63451 5.49234 8.41246 4.91976 8.13961 4.15996Z" fill="black"/>
</svg>
