<svg width="17" height="18" viewBox="0 0 17 18" fill="none" xmlns="http://www.w3.org/2000/svg">
<path fill-rule="evenodd" clip-rule="evenodd" d="M11.277 6.12976C11.5831 5.96826 11.9115 6.24271 11.975 6.58294C12.0961 7.23113 12.4319 7.91526 12.8034 8.50539C12.8802 8.62732 13.0087 8.7052 13.1504 8.73113C14.0816 8.90153 14.9701 9.35177 15.6782 10.0795C17.4843 11.9357 17.4331 14.8942 15.5637 16.6876C13.6944 18.481 10.7148 18.4301 8.90868 16.5739C8.41123 16.0627 8.05468 15.4678 7.8382 14.8367C7.80543 14.7411 7.74805 14.655 7.66795 14.5934C6.29414 13.5375 4.80008 13.0073 3.71416 12.7803C3.29847 12.6935 3.12201 12.185 3.50226 11.9959C3.92282 11.7868 4.35195 11.6973 4.70167 11.6718C4.99056 11.6508 5.26086 11.435 5.20135 11.1515C4.93592 9.88714 3.40286 8.97074 2.04723 8.63134C1.60132 8.5197 1.38517 7.92101 1.80344 7.73037C2.12226 7.58507 2.46857 7.49462 2.82753 7.48776C3.33158 7.47814 3.88766 6.9584 3.55994 6.5753C3.27888 6.24673 2.93602 5.94219 2.53263 5.73365C1.18253 5.03567 0.480668 2.92971 0.476639 1.82143C0.475952 1.63257 0.426292 1.45095 0.344776 1.28008C0.124019 0.817328 0.366943 0.13648 0.838466 0.337815C1.31664 0.541992 1.7384 0.851997 1.95844 1.30252C2.46585 2.34142 3.96687 3.36324 5.20557 3.37232C5.59169 3.37515 5.93161 3.51507 6.21569 3.7117C6.58378 3.96649 7.56889 3.76536 7.89836 3.46227C8.21013 3.17546 8.50741 3.60679 8.49525 4.03024C8.46227 5.17914 9.043 6.13357 9.64219 6.76333C9.91751 7.0527 10.4386 6.8202 10.7179 6.53463C10.8795 6.36937 11.0778 6.23485 11.277 6.12976ZM12.7484 10.9513C12.9449 10.8258 13.1412 11.0263 13.2032 11.2511C13.266 11.4786 13.3764 11.7102 13.5014 11.9219C13.5746 12.0461 13.7045 12.122 13.8447 12.1554C14.2437 12.2504 14.6209 12.4557 14.9271 12.7703C15.7835 13.6505 15.7592 15.0534 14.8728 15.9037C13.9864 16.7541 12.5736 16.73 11.7171 15.8498C11.5017 15.6284 11.342 15.3739 11.2377 15.1034C11.2014 15.0092 11.1452 14.9225 11.064 14.8625C10.5813 14.5055 10.0722 14.2821 9.63681 14.1499C9.2943 14.046 9.28511 13.5793 9.6402 13.5342C9.88239 13.5034 9.99677 13.3152 9.89859 13.0917C9.70411 12.649 9.18319 12.3155 8.6695 12.1444C8.39157 12.0517 8.21828 11.6884 8.4973 11.5992C8.80332 11.5013 9.22162 11.1146 8.97831 10.9048C8.89188 10.8303 8.79699 10.7636 8.69374 10.7102C8.05355 10.3793 7.72074 9.38067 7.71883 8.85514C7.71768 8.53948 7.86379 8.09999 8.12428 8.27827C8.25019 8.36444 8.35515 8.47331 8.42147 8.60909C8.66207 9.10171 9.37382 9.58624 9.96119 9.59054C10.1443 9.59188 10.3055 9.65823 10.4402 9.75147C10.6147 9.87228 11.0818 9.77691 11.238 9.63319C11.3859 9.4972 11.5268 9.70172 11.5211 9.90251C11.5077 10.3678 11.7066 10.7658 11.942 11.0581C12.1108 11.2677 12.5215 11.0962 12.7484 10.9513Z" fill="black"/>
</svg>
