<svg width="14" height="18" viewBox="0 0 14 18" fill="none" xmlns="http://www.w3.org/2000/svg">
<path d="M8.07009 0.122045C8.24175 -0.0406817 8.52005 -0.0406817 8.69171 0.122045L9.92305 1.28934C10.0947 1.45207 10.0947 1.7159 9.92305 1.87863L8.52215 3.20666C8.3505 3.36939 8.07219 3.36939 7.90054 3.20666L6.6692 2.03936C6.49754 1.87664 6.49754 1.61281 6.6692 1.45008L8.07009 0.122045Z" fill="black"/>
<path d="M11.1268 2.23479C10.9528 2.07431 10.6745 2.07792 10.5052 2.24286L6.76424 5.88782C6.59495 6.05276 6.59877 6.31656 6.77276 6.47705L7.81377 7.43722C7.98776 7.59771 8.26604 7.59409 8.43532 7.42915L12.1763 3.7842C12.3456 3.61925 12.3418 3.35545 12.1678 3.19497L11.1268 2.23479Z" fill="black"/>
<path d="M12.0843 5.1174C12.2778 4.97851 12.5535 5.01465 12.7 5.19814L13.4402 6.12509C13.5867 6.30857 13.5486 6.56992 13.355 6.70881L9.54534 9.4427C9.35179 9.58159 9.07611 9.54545 8.92959 9.36196L8.18941 8.43502C8.04289 8.25153 8.08102 7.99018 8.27457 7.85129L12.0843 5.1174Z" fill="black"/>
<path d="M12.8791 8.0985C13.0893 7.98343 13.3581 8.05172 13.4795 8.25102L13.941 9.00883C14.0624 9.20813 13.9904 9.46297 13.7802 9.57804L10.7294 11.2478C10.5192 11.3628 10.2504 11.2945 10.129 11.0952L9.66748 10.3374C9.5461 10.1381 9.61813 9.88328 9.82836 9.76821L12.8791 8.0985Z" fill="black"/>
<path d="M7.59105 4.22789C7.76271 4.06516 7.76271 3.80133 7.59105 3.6386L6.39216 2.50206C6.37578 2.47827 6.35658 2.45572 6.33454 2.43483L5.1972 1.35665C5.02555 1.19392 4.74724 1.19392 4.57559 1.35665L0.128741 5.5722C-0.0429138 5.73493 -0.0429136 5.99876 0.128741 6.16149L1.04962 7.03447C0.633828 7.67658 0.71925 8.52792 1.30589 9.08405L5.92616 13.464C6.61277 14.1149 7.726 14.1149 8.41262 13.464L9.13335 12.7808C9.81997 12.1299 9.81997 11.0745 9.13335 10.4236L6.44442 7.87455C6.51435 7.64986 6.55188 7.412 6.55188 7.16583C6.55188 5.98612 5.68997 4.99726 4.53056 4.73427L5.16604 4.13184L6.11839 5.03466C6.29005 5.19739 6.56836 5.19739 6.74001 5.03466L7.59105 4.22789Z" fill="black"/>
<path d="M0.398179 18L1.26392 9.79292L5.94865 14.234C6.63527 14.8849 7.7485 14.8849 8.43512 14.234L8.71079 13.9727L9.18918 14.2498L9.62873 18H0.398179Z" fill="black"/>
</svg>
