<svg width="16" height="18" viewBox="0 0 16 18" fill="none" xmlns="http://www.w3.org/2000/svg">
<path d="M0.810669 0C0.362946 0 0 0.362946 0 0.810669V17.1893C0 17.6371 0.362946 18 0.810669 18C1.25839 18 1.62134 17.6371 1.62134 17.1893V0.810669C1.62134 0.362946 1.25839 0 0.810669 0Z" fill="black"/>
<path d="M2.55997 2.89998C2.55997 1.79541 3.45538 0.899979 4.55997 0.899979H8.66666C9.77121 0.899979 10.6667 1.79541 10.6667 2.89998V7.0818C10.6667 8.18637 9.77121 9.0818 8.66666 9.0818H4.55997C3.45538 9.0818 2.55997 8.18637 2.55997 7.0818V2.89998Z" fill="black"/>
<path d="M11.9467 3.60002H16L13.4059 7.78909L16 11.4545H8.1217C7.21799 11.4545 6.48535 10.7219 6.48535 9.81818H11.9467V3.60002Z" fill="black"/>
</svg>
