<svg width="16" height="20" viewBox="0 0 16 20" fill="none" xmlns="http://www.w3.org/2000/svg">
<path fill-rule="evenodd" clip-rule="evenodd" d="M13.8298 6.39113C13.8298 8.28193 13.0319 9.98096 11.7636 11.1511C11.1255 9.43544 9.5104 8.21716 7.61875 8.21716C5.72713 8.21716 4.11203 9.43539 3.47396 11.151C2.20574 9.98085 1.40784 8.28187 1.40784 6.39113C1.40784 2.86141 4.1886 0 7.61883 0C11.0491 0 13.8298 2.86141 13.8298 6.39113ZM4.9569 7.30415C5.93696 7.30415 6.73146 6.4866 6.73146 5.47811C6.73146 4.46962 5.93696 3.65207 4.9569 3.65207C3.97683 3.65207 3.18233 4.46962 3.18233 5.47811C3.18233 6.4866 3.97683 7.30415 4.9569 7.30415ZM12.0552 5.47811C12.0552 6.4866 11.2607 7.30415 10.2807 7.30415C9.30061 7.30415 8.50611 6.4866 8.50611 5.47811C8.50611 4.46962 9.30061 3.65207 10.2807 3.65207C11.2607 3.65207 12.0552 4.46962 12.0552 5.47811Z" fill="black"/>
<path d="M0.259761 14.8771C-0.0865869 15.2329 -0.086587 15.8097 0.259761 16.1655L3.6675 19.666C4.01384 20.0218 4.57538 20.0218 4.92173 19.666L6.33148 18.2179C6.67783 17.8621 6.67783 17.2853 6.33148 16.9295L2.92374 13.429C2.5774 13.0732 2.01586 13.0732 1.66951 13.429L0.259761 14.8771Z" fill="black"/>
<path d="M15.7405 15.8749C16.0865 15.5189 16.0865 14.9415 15.7405 14.5854L14.1351 12.9335C13.7891 12.5774 13.228 12.5774 12.882 12.9335L9.1327 16.7915C8.78666 17.1476 8.78665 17.7249 9.1327 18.081L10.7381 19.7329C11.0841 20.089 11.6452 20.089 11.9912 19.7329L15.7405 15.8749Z" fill="black"/>
<path d="M7.61883 13.6994C8.10293 13.6994 8.50458 13.2941 8.50458 12.7824C8.50458 12.2707 8.10293 11.8654 7.61883 11.8654C7.13472 11.8654 6.73307 12.2707 6.73307 12.7824C6.73307 13.2941 7.13472 13.6994 7.61883 13.6994Z" fill="black"/>
<path fill-rule="evenodd" clip-rule="evenodd" d="M11.1679 12.7823C11.1679 14.7992 9.57893 16.4343 7.6188 16.4343C5.65867 16.4343 4.06967 14.7992 4.06967 12.7823C4.06967 10.7653 5.65867 9.13018 7.6188 9.13018C9.57893 9.13018 11.1679 10.7653 11.1679 12.7823ZM7.61883 14.6084C8.59889 14.6084 9.39339 13.7909 9.39339 12.7824C9.39339 11.7739 8.59889 10.9564 7.61883 10.9564C6.63876 10.9564 5.84426 11.7739 5.84426 12.7824C5.84426 13.7909 6.63876 14.6084 7.61883 14.6084Z" fill="black"/>
</svg>
