<svg width="14" height="18" viewBox="0 0 14 18" fill="none" xmlns="http://www.w3.org/2000/svg">
<path fill-rule="evenodd" clip-rule="evenodd" d="M14 6.85714C14 3.07005 10.866 0 7 0C3.13401 0 0 3.07005 0 6.85714V18H1.02438C1.38474 17.0013 2.35707 16.2857 3.5 16.2857C4.64293 16.2857 5.61526 17.0013 5.97562 18H8.02438C8.38474 17.0013 9.35707 16.2857 10.5 16.2857C11.6429 16.2857 12.6153 17.0013 12.9756 18H14V6.85714ZM6.125 7.28571C6.125 8.46918 5.14562 9.42857 3.9375 9.42857C2.72938 9.42857 1.75 8.46918 1.75 7.28571C1.75 6.10225 2.72938 5.14286 3.9375 5.14286C5.14562 5.14286 6.125 6.10225 6.125 7.28571ZM10.0625 9.42857C11.2706 9.42857 12.25 8.46918 12.25 7.28571C12.25 6.10225 11.2706 5.14286 10.0625 5.14286C8.85438 5.14286 7.875 6.10225 7.875 7.28571C7.875 8.46918 8.85438 9.42857 10.0625 9.42857Z" fill="black"/>
</svg>
