<svg width="20" height="20" viewBox="0 0 20 20" fill="none" xmlns="http://www.w3.org/2000/svg">
<path d="M9.8601 0C9.39189 0 9.01232 0.401491 9.01232 0.896769V3.86519C9.01232 4.36046 9.39189 4.76196 9.8601 4.76196C10.3283 4.76196 10.7078 4.36046 10.7078 3.86519V0.896769C10.7078 0.401491 10.3283 0 9.8601 0Z" fill="black"/>
<path d="M8.42451 8.20858H11.2431L14.0617 13.6508H5.60594L8.42451 8.20858Z" fill="black"/>
<path d="M3.35106 14.5578H6.16968L8.98825 20H0.53249L3.35106 14.5578Z" fill="black"/>
<path d="M16.3165 14.5578H13.4979L10.6793 20H19.135L16.3165 14.5578Z" fill="black"/>
<path d="M15.649 3.53041C15.98 3.15848 16.5169 3.15848 16.8479 3.53041C17.179 3.90234 17.179 4.50536 16.8479 4.87729L15.0495 6.89762C14.7184 7.26955 14.1817 7.26955 13.8506 6.89762C13.5195 6.52569 13.5195 5.92267 13.8506 5.55074L15.649 3.53041Z" fill="black"/>
<path d="M19.8892 9.39618C19.6551 8.94065 19.1266 8.79109 18.7087 9.06211L16.551 10.4616C16.1331 10.7327 15.9842 11.3216 16.2183 11.7772C16.4524 12.2327 16.9809 12.3823 17.3987 12.1112L19.5565 10.7117C19.9743 10.4407 20.1233 9.8517 19.8892 9.39618Z" fill="black"/>
<path d="M4.35101 3.53041C4.01997 3.15848 3.48314 3.15848 3.1521 3.53041C2.821 3.90234 2.821 4.50536 3.1521 4.87729L4.95047 6.89762C5.28156 7.26955 5.81834 7.26955 6.14938 6.89762C6.48048 6.52569 6.48048 5.92267 6.14938 5.55074L4.35101 3.53041Z" fill="black"/>
<path d="M0.110803 9.39618C0.34491 8.94065 0.873448 8.79109 1.2913 9.06211L3.44904 10.4616C3.8669 10.7327 4.01582 11.3216 3.78171 11.7772C3.54761 12.2327 3.01912 12.3823 2.60127 12.1112L0.443526 10.7117C0.0256689 10.4407 -0.123303 9.8517 0.110803 9.39618Z" fill="black"/>
</svg>
