<svg width="20" height="16" viewBox="0 0 20 16" fill="none" xmlns="http://www.w3.org/2000/svg">
<path d="M4.02597 10.2856V5.84115C4.02597 3.80816 5.32374 2.05419 7.19846 1.24247C6.597 0.48641 5.65769 0 4.60219 0C2.78669 0 1.31494 1.43902 1.31491 3.21421V8.35711H0V10.2856H4.02597Z" fill="black"/>
<path d="M18.6851 3.21421V8.35711H20V10.2856H15.974V5.84115C15.974 3.80817 14.6762 2.0542 12.8015 1.24249C13.403 0.48641 14.3423 0 15.3978 0C17.2133 0 18.6851 1.43902 18.6851 3.21421Z" fill="black"/>
<path fill-rule="evenodd" clip-rule="evenodd" d="M14.5455 6.22222V13.3333H16.3637V16H3.63637V13.3333H5.45456V6.22222C5.45456 3.76762 7.48963 1.77778 10 1.77778C12.5104 1.77778 14.5455 3.76762 14.5455 6.22222ZM7.27274 7.11111H9.09093V5.33333H10.9091V7.11111H12.7273V8.88889H10.9091V10.6667H9.09093V8.88889H7.27274V7.11111Z" fill="black"/>
</svg>
