<svg width="16" height="18" viewBox="0 0 16 18" fill="none" xmlns="http://www.w3.org/2000/svg">
<path d="M5.89736 0.971853C5.91227 0.432584 6.3541 0 6.89697 0H11.6364C12.1887 0 12.6364 0.447715 12.6364 1V1.57142C12.6364 2.1237 12.1887 2.57142 11.6364 2.57142H6.89697C6.69521 2.57142 6.50741 2.51167 6.35029 2.4089C3.67503 3.28228 1.5 6.22204 1.5 10.0706C1.5 11.3657 1.74628 12.5578 2.17504 13.603C2.31822 13.952 2.07335 14.3562 1.69609 14.3562H1.20067C1.00147 14.3562 0.820238 14.2384 0.746878 14.0532C0.267648 12.8434 0 11.4938 0 10.0706C0 5.72195 2.49896 2.06088 5.89736 0.971853Z" fill="black"/>
<path d="M10.9364 14.5714C11.0549 13.513 11.129 12.3587 11.1477 11.1429H7.38044C7.39916 12.3587 7.47318 13.513 7.59175 14.5714H10.9364Z" fill="black"/>
<path d="M10.3405 17.8912C10.5322 17.1759 10.6974 16.3463 10.8278 15.4286H7.70035C7.83071 16.3463 7.99588 17.1759 8.18762 17.8912C8.19744 17.9278 8.20731 17.9641 8.21723 18H10.3109C10.3208 17.9641 10.3307 17.9278 10.3405 17.8912Z" fill="black"/>
<path d="M6.69067 15.4286C6.8204 16.3753 6.98656 17.241 7.18225 18H5.68097C4.87643 17.3383 4.18633 16.4604 3.65834 15.4286H6.69067Z" fill="black"/>
<path d="M14.8674 15.4286C14.3394 16.4604 13.6493 17.3383 12.8447 18H11.3459C11.5416 17.241 11.7077 16.3753 11.8374 15.4286H14.8674Z" fill="black"/>
<path d="M6.58569 14.5714C6.46977 13.503 6.39844 12.3495 6.38033 11.1429H2.53945C2.6039 12.3721 2.86096 13.532 3.27143 14.5714H6.58569Z" fill="black"/>
<path d="M15.2543 14.5714H11.9424C12.0583 13.503 12.1297 12.3495 12.1478 11.1429H15.9862C15.9218 12.3721 15.6647 13.532 15.2543 14.5714Z" fill="black"/>
<path d="M7.3765 10.2857C7.38391 9.07541 7.44611 7.92167 7.55279 6.85717H10.9753C11.082 7.92167 11.1442 9.07541 11.1516 10.2857H7.3765Z" fill="black"/>
<path d="M8.12075 3.42859C7.9329 4.18061 7.77334 5.04683 7.65067 6.00003H10.8775C10.7548 5.04683 10.5952 4.18061 10.4074 3.42859H8.12075Z" fill="black"/>
<path d="M7.09183 3.42859C6.9112 4.19692 6.75939 5.0619 6.6427 6.00003H3.48021C3.94108 4.99554 4.55056 4.12105 5.26887 3.42859H7.09183Z" fill="black"/>
<path d="M13.2568 3.42859C13.9751 4.12105 14.5846 4.99554 15.0455 6.00003H11.8854C11.7687 5.0619 11.6169 4.19692 11.4363 3.42859H13.2568Z" fill="black"/>
<path d="M12.1516 10.2857C12.1445 9.08403 12.0845 7.93086 11.9802 6.85717H15.3912C15.759 7.90559 15.9742 9.06467 15.9997 10.2857H12.1516Z" fill="black"/>
<path d="M6.54794 6.85717H3.13453C2.7667 7.90559 2.55146 9.06467 2.526 10.2857H6.37648C6.38366 9.08403 6.44358 7.93086 6.54794 6.85717Z" fill="black"/>
</svg>
