<svg width="20" height="12" viewBox="0 0 20 12" fill="none" xmlns="http://www.w3.org/2000/svg">
<path d="M17 0.471431C17 0.211068 17.2238 0 17.5 0C17.7761 0 17.9999 0.211068 17.9999 0.471431V0.923074H17V0.471431Z" fill="black"/>
<path d="M19.0908 0.92327H3.11102L2.6456 1.53374L2.054 1.21846C1.74805 1.05538 1.3552 1.1546 1.17665 1.4401C0.99798 1.72559 1.10141 2.08925 1.40736 2.25234L1.89842 2.51399L1.00009 3.69231H14.0624V2.76942H19.9999V1.78041C19.9999 1.30702 19.593 0.92327 19.0908 0.92327Z" fill="black"/>
<path d="M20 3.69224V4.61532H15.25V3.69224H20Z" fill="black"/>
<path fill-rule="evenodd" clip-rule="evenodd" d="M0.999978 4.61538L20 4.61532V4.68131C20 5.15471 19.593 5.53846 19.0909 5.53846L12 5.53836L10 7.38471H6.50002L5.99998 10.154L6.09086 10.1539C6.59302 10.1539 6.99996 10.5376 6.99996 11.011V11.1429C6.99996 11.6163 6.59302 12 6.09086 12H0L0.500044 10.1539L0.999978 10.154L1.83339 5.53846H0.999978V4.61538ZM10 6.46164L11 5.53836L6.82961 5.53846C6.8275 5.56433 6.82406 5.59035 6.81929 5.6165L6.6667 6.46164H10Z" fill="black"/>
</svg>
