<svg width="18" height="18" viewBox="0 0 18 18" fill="none" xmlns="http://www.w3.org/2000/svg">
<path d="M9 2C5.58588 2 2.81818 4.7677 2.81818 8.18182H3.09091C3.64319 8.18182 4.09091 8.62953 4.09091 9.18182V13.7273C4.09091 14.1023 3.88451 14.4291 3.5791 14.6002L4.12483 15.5455H6.54547V15.7194C6.54971 15.1707 6.99579 14.7273 7.54544 14.7273H10.4545C11.0068 14.7273 11.4545 15.175 11.4545 15.7273V17C11.4545 17.5523 11.0068 18 10.4545 18H7.54544C6.9958 18 6.54971 17.5565 6.54547 17.0079V17.1818H2.45456V15.9252L1.76295 14.7273H1C0.447708 14.7273 0 14.2796 0 13.7273V9.18182C0 8.62953 0.447708 8.18182 1 8.18182H0.818176C0.818176 3.66313 4.48131 0 9 0C13.5187 0 17.1818 3.66313 17.1818 8.18182H17C17.5523 8.18182 18 8.62953 18 9.18182V13.7273C18 14.2796 17.5523 14.7273 17 14.7273H14.9091C14.3568 14.7273 13.9091 14.2796 13.9091 13.7273V9.18182C13.9091 8.62953 14.3568 8.18182 14.9091 8.18182H15.1818C15.1818 4.7677 12.4141 2 9 2Z" fill="black"/>
</svg>
