<svg width="22" height="16" viewBox="0 0 22 16" fill="none" xmlns="http://www.w3.org/2000/svg">
<path d="M14.1584 12.4444L20.865 6.07351H20.9077C21.6071 5.4063 22 4.50137 22 3.55778C22 2.6142 21.6071 1.70927 20.9077 1.04205C20.2083 0.374837 19.2598 0 18.2707 0C17.2817 0 16.3331 0.374837 15.6337 1.04205L14.2083 2.40191L12.7829 1.04205C12.0836 0.374837 11.135 0 10.1459 0C9.15688 0 8.20832 0.374837 7.50896 1.04205C6.8096 1.70927 6.41667 2.6142 6.41667 3.55778C6.41667 4.30811 6.66508 5.03399 7.11855 5.63534C7.28953 5.37192 7.48831 5.12713 7.71082 4.90483C7.47091 4.50901 7.33333 4.04787 7.33333 3.55556C7.33333 2.08279 8.56454 0.888889 10.0833 0.888889C11.0777 0.888889 11.9487 1.40058 12.4317 2.16722C12.0147 1.92015 11.5245 1.77778 11 1.77778C9.48132 1.77778 8.25017 2.9715 8.25 4.44412C9.016 3.88618 9.96819 3.55556 11 3.55556C13.5313 3.55556 15.5833 5.5454 15.5833 8C15.5833 9.58317 14.7297 10.973 13.4444 11.7603L14.1584 12.4444Z" fill="black"/>
<path fill-rule="evenodd" clip-rule="evenodd" d="M13.5984 10.0841L7.28639 16L1.02801 10.0841C0.369766 9.46459 0 8.62428 0 7.7481C0 6.87192 0.369766 6.03162 1.02801 5.41207C1.68624 4.79251 2.57902 4.44444 3.5099 4.44444C4.44078 4.44444 5.33355 4.79251 5.99179 5.41207L7.33333 6.67479L8.67488 5.41207C9.33311 4.79251 10.2259 4.44444 11.1568 4.44444C12.0876 4.44444 12.9804 4.79251 13.6387 5.41207C14.2969 6.03162 14.6667 6.87192 14.6667 7.7481C14.6667 8.62428 14.2969 9.46459 13.6387 10.0841H13.5984ZM6.01507 6.61167C5.59802 6.3646 5.1078 6.22222 4.58333 6.22222C3.06454 6.22222 1.83333 7.41612 1.83333 8.88889C1.83333 9.39747 1.98014 9.87282 2.23493 10.2772C1.44438 9.80882 0.916667 8.96417 0.916667 8C0.916667 6.52724 2.14788 5.33333 3.66667 5.33333C4.66099 5.33333 5.532 5.84503 6.01507 6.61167Z" fill="black"/>
</svg>
