<svg width="18" height="18" viewBox="0 0 18 18" fill="none" xmlns="http://www.w3.org/2000/svg">
<path fill-rule="evenodd" clip-rule="evenodd" d="M17.6091 11.6318C17.8633 10.7993 18 9.91564 18 9C18 4.02944 13.9706 0 9 0C7.61395 0 6.30108 0.313321 5.12836 0.872999L2.65298 0.254155C2.13659 0.125057 1.63636 0.515623 1.63636 1.04791V3.82405C0.605407 5.28806 0 7.07333 0 9C0 9.91564 0.136737 10.7993 0.390904 11.6318L2.45455 14.7273V18H4.90909V14.7273H6.54545V18H8.18182V14.7273H9.81818V18H11.4545V14.7273H13.0909V18H15.5455V14.7273L17.6091 11.6318ZM10.6364 12.2727H7.36364L8.18182 9.81818H9.81818L10.6364 12.2727ZM4.88814 10.6364L7.70507 7.70429H7.72303C8.01679 7.39722 8.18182 6.98074 8.18182 6.54648C8.18182 6.11222 8.01679 5.69574 7.72303 5.38867C7.42927 5.0816 7.03085 4.90909 6.61542 4.90909C6.19998 4.90909 5.80156 5.0816 5.5078 5.38867L4.90909 6.01451L4.31038 5.38867C4.01662 5.0816 3.6182 4.90909 3.20277 4.90909C2.78733 4.90909 2.38891 5.0816 2.09515 5.38867C1.80139 5.69574 1.63636 6.11222 1.63636 6.54648C1.63636 6.98074 1.80139 7.39722 2.09515 7.70429L4.88814 10.6364ZM15.8869 7.70429L13.07 10.6364L10.277 7.70429C9.98321 7.39722 9.81818 6.98074 9.81818 6.54648C9.81818 6.11222 9.98321 5.69574 10.277 5.38867C10.5707 5.0816 10.9691 4.90909 11.3846 4.90909C11.8 4.90909 12.1984 5.0816 12.4922 5.38867L13.0909 6.01451L13.6896 5.38867C13.9834 5.0816 14.3818 4.90909 14.7972 4.90909C15.2127 4.90909 15.6111 5.0816 15.9048 5.38867C16.1986 5.69574 16.3636 6.11222 16.3636 6.54648C16.3636 6.98074 16.1986 7.39722 15.9048 7.70429H15.8869Z" fill="black"/>
</svg>
