<svg width="20" height="16" viewBox="0 0 20 16" fill="none" xmlns="http://www.w3.org/2000/svg">
<path fill-rule="evenodd" clip-rule="evenodd" d="M17.1429 8C17.1429 8.32532 17.122 8.6461 17.0816 8.96125L16.6667 9.37252L15.8826 8.59546C15.498 8.21419 14.9762 8 14.4322 8C13.8882 8 13.3664 8.21419 12.9817 8.59546C12.5971 8.97672 12.3809 9.49383 12.3809 10.033C12.3809 10.5722 12.5971 11.0893 12.9817 11.4706L14.9077 13.3876C13.3401 14.9928 11.0818 16 8.57143 16C3.83756 16 0 12.4183 0 8C0 6.67767 0.34374 5.43027 0.95237 4.3314V1.12597C0.95237 0.551613 1.50111 0.12804 2.07248 0.261359L4.68042 0.869878C5.8481 0.313674 7.17052 0 8.57143 0C13.3053 0 17.1429 3.58172 17.1429 8ZM10 9.77778C10.789 9.77778 11.4286 9.18082 11.4286 8.44444C11.4286 7.70806 10.789 7.11111 10 7.11111C9.21102 7.11111 8.57143 7.70806 8.57143 8.44444C8.57143 8.50505 8.57576 8.56472 8.58415 8.62318C8.66378 8.14431 9.10746 7.77778 9.64286 7.77778C10.2346 7.77778 10.7143 8.22549 10.7143 8.77778C10.7143 9.27748 10.3216 9.69158 9.80849 9.7659C9.87113 9.77373 9.93506 9.77778 10 9.77778ZM10 9.77778C9.93506 9.77778 9.87113 9.78182 9.80849 9.78965C10.3216 9.86397 10.7143 10.2781 10.7143 10.7778C10.7143 11.3301 10.2346 11.7778 9.64286 11.7778C9.10746 11.7778 8.66378 11.4113 8.58415 10.9324C8.57576 10.9908 8.57143 11.0505 8.57143 11.1111C8.57143 11.8475 9.21102 12.4444 10 12.4444C10.789 12.4444 11.4286 11.8475 11.4286 11.1111C11.4286 10.3747 10.789 9.77778 10 9.77778ZM3.48484 4.87434C3.23199 4.73697 2.85711 4.91294 2.85711 5.19577C2.85711 5.28363 2.8935 5.36733 2.96343 5.4225C3.24902 5.64782 4.08969 6.22222 5.23806 6.22222C6.38644 6.22222 7.2271 5.64782 7.5127 5.4225C7.58262 5.36733 7.61901 5.28363 7.61901 5.19577C7.61901 4.91294 7.24413 4.73697 6.99129 4.87434C6.57352 5.1013 5.96794 5.33333 5.23806 5.33333C4.50818 5.33333 3.9026 5.1013 3.48484 4.87434ZM9.52381 5.19577C9.52381 4.91294 9.89869 4.73697 10.1515 4.87434C10.5693 5.1013 11.1749 5.33333 11.9048 5.33333C12.6346 5.33333 13.2402 5.1013 13.658 4.87434C13.9108 4.73697 14.2857 4.91294 14.2857 5.19577C14.2857 5.28363 14.2493 5.36733 14.1794 5.4225C13.8938 5.64782 13.0531 6.22222 11.9048 6.22222C10.7564 6.22222 9.91572 5.64782 9.63013 5.4225C9.5602 5.36733 9.52381 5.28363 9.52381 5.19577Z" fill="black"/>
<path d="M19.5144 11.4918L16.6453 14.2222L13.8006 11.4918C13.5014 11.2059 13.3333 10.818 13.3333 10.4137C13.3333 10.0093 13.5014 9.62143 13.8006 9.33548C14.0998 9.04953 14.5056 8.88889 14.9287 8.88889C15.3519 8.88889 15.7577 9.04953 16.0569 9.33548L16.6667 9.91828L17.2765 9.33548C17.5757 9.04953 17.9815 8.88889 18.4046 8.88889C18.8277 8.88889 19.2335 9.04953 19.5327 9.33548C19.8319 9.62143 20 10.0093 20 10.4137C20 10.818 19.8319 11.2059 19.5327 11.4918H19.5144Z" fill="black"/>
</svg>
