<svg width="11" height="18" viewBox="0 0 11 18" fill="none" xmlns="http://www.w3.org/2000/svg">
<path fill-rule="evenodd" clip-rule="evenodd" d="M8.20865 11.5198L3.87882 9.01997L9.25326 0.00018863C11.6444 1.38071 11.1767 6.53806 8.20865 11.5198ZM3.49472 9.66385L6.38128 11.3304L6.0372 11.9079L6.03682 11.9077C5.63827 11.6776 5.16048 11.7507 4.96965 12.0709C4.77881 12.3912 4.94719 12.8374 5.34574 13.0675L5.34612 13.0677L4.99915 13.65C4.60082 13.4207 4.12376 13.494 3.9331 13.8139C3.74245 14.1339 3.91033 14.5795 4.30807 14.8098L3.96204 15.3905C3.56362 15.1609 3.08622 15.2341 2.89548 15.5542C2.70474 15.8743 2.87285 16.3202 3.27096 16.5504L2.92588 17.1295L0.0393217 15.463L3.49472 9.66385Z" fill="black"/>
</svg>
