<svg width="22" height="16" viewBox="0 0 22 16" fill="none" xmlns="http://www.w3.org/2000/svg">
<path d="M11 9.66673C11.9205 9.66673 12.6667 8.92054 12.6667 8.00006C12.6667 7.07959 11.9205 6.33339 11 6.33339C10.0795 6.33339 9.33333 7.07959 9.33333 8.00006C9.33333 8.92054 10.0795 9.66673 11 9.66673Z" fill="black"/>
<path fill-rule="evenodd" clip-rule="evenodd" d="M7.875 8.41673H7.69246C7.88048 9.92453 9.07553 11.1196 10.5833 11.3076V11.1251C10.5833 11.01 10.6766 10.9167 10.7917 10.9167H11.2083C11.3234 10.9167 11.4167 11.01 11.4167 11.1251V11.3076C12.9245 11.1196 14.1195 9.92453 14.3075 8.41673H14.125C14.0099 8.41673 13.9167 8.32345 13.9167 8.20839V7.79173C13.9167 7.67667 14.0099 7.58339 14.125 7.58339H14.3075C14.1195 6.0756 12.9245 4.88054 11.4167 4.69252V4.87506C11.4167 4.99012 11.3234 5.08339 11.2083 5.08339H10.7917C10.6766 5.08339 10.5833 4.99012 10.5833 4.87506V4.69252C9.07553 4.88054 7.88048 6.0756 7.69246 7.58339H7.875C7.99006 7.58339 8.08333 7.67667 8.08333 7.79173V8.20839C8.08333 8.32345 7.99006 8.41673 7.875 8.41673ZM11 10.5001C12.3807 10.5001 13.5 9.38077 13.5 8.00006C13.5 6.61935 12.3807 5.50006 11 5.50006C9.61929 5.50006 8.5 6.61935 8.5 8.00006C8.5 9.38077 9.61929 10.5001 11 10.5001Z" fill="black"/>
<path fill-rule="evenodd" clip-rule="evenodd" d="M10.3492 0.557882L4.46925 5.59785C4.18166 5.84435 4.05803 6.23218 4.1499 6.59964L5.87599 13.504C5.95387 13.8155 6.1766 14.0707 6.47474 14.19L10.6286 15.8515C10.867 15.9469 11.133 15.9469 11.3714 15.8515L15.5253 14.19C15.8234 14.0707 16.0461 13.8155 16.124 13.504L17.8501 6.59964C17.942 6.23218 17.8183 5.84435 17.5308 5.59785L11.6508 0.557882C11.2763 0.236891 10.7237 0.236891 10.3492 0.557882ZM10.7917 3.00006C10.6766 3.00006 10.5833 3.09334 10.5833 3.20839V3.85397C8.61483 4.04941 7.04935 5.61489 6.85391 7.58339H6.20833C6.09327 7.58339 6 7.67667 6 7.79173V8.20839C6 8.32345 6.09327 8.41673 6.20833 8.41673H6.85391C7.04935 10.3852 8.61483 11.9507 10.5833 12.1462V12.7917C10.5833 12.9068 10.6766 13.0001 10.7917 13.0001H11.2083C11.3234 13.0001 11.4167 12.9068 11.4167 12.7917V12.1462C13.3852 11.9507 14.9506 10.3852 15.1461 8.41673H15.7917C15.9067 8.41673 16 8.32345 16 8.20839V7.79173C16 7.67667 15.9067 7.58339 15.7917 7.58339H15.1461C14.9506 5.61489 13.3852 4.04941 11.4167 3.85397V3.20839C11.4167 3.09334 11.3234 3.00006 11.2083 3.00006H10.7917Z" fill="black"/>
<path d="M17 13.5001L18.5 7.00006L22 6.50006L19.5 10.0001L21.5 12.0001L17 13.5001Z" fill="black"/>
<path d="M3.5 7.00006L5 13.5001L0.5 12.0001L2.5 10.0001L0 6.50006L3.5 7.00006Z" fill="black"/>
</svg>
