<svg width="18" height="18" viewBox="0 0 18 18" fill="none" xmlns="http://www.w3.org/2000/svg">
<path d="M13.0911 7.363C12.7676 6.44798 12.2399 5.58904 11.5079 4.85704L11.4682 4.81772L11.4461 4.79597C11.1442 4.78657 10.8437 4.78261 10.5473 4.78261C9.25658 4.78261 8.29248 4.88014 7.53752 4.95652C6.27619 5.08412 5.59873 5.15266 4.95773 4.60869C4.32362 4.0706 5.02255 3.57976 5.74974 3.06906C6.19769 2.75446 6.65642 2.43232 6.82091 2.08695C7.19355 1.30435 6.914 0 6.54136 0C6.3489 0 6.30555 0.324908 6.25731 0.68697C6.21207 1.02576 6.16253 1.39709 5.98246 1.56521C5.90845 1.63434 5.66235 1.74659 5.32088 1.90231C4.02679 2.4926 1.3634 3.70747 1.51082 5.56521C1.62328 6.98282 3.09435 7.54449 4.57041 7.76702C5.08497 7.14661 5.47059 6.45534 5.72747 5.72871C6.00473 6.51287 6.4319 7.25583 7.00918 7.91303L7.10036 7.91304C7.29223 7.91304 7.53043 7.90728 7.79989 7.90076C9.62322 7.85664 12.8763 7.77791 12.8763 9.21739C12.8763 10.3852 10.782 10.3366 8.92889 10.2077C8.34681 10.5146 7.80039 10.9128 7.3107 11.4025C6.57871 12.1345 6.05097 12.9934 5.72747 13.9085C5.40398 12.9934 4.87623 12.1345 4.14424 11.4025C3.76362 11.0218 3.34853 10.6964 2.90918 10.4262C1.35252 10.8212 0 11.6719 0 13.5C0 15.1403 2.3302 15.356 4.29695 15.538C5.43194 15.6431 6.44588 15.7369 6.82091 16.087C7.64069 16.8522 7.22461 17.6812 6.914 18C7.84564 17.3333 9.39211 15.7043 8.12509 14.5217C6.54136 13.0435 7.473 12.6957 10.4541 12.6957C10.9334 12.6957 11.4536 12.6803 11.9893 12.6404C12.1042 12.54 12.2166 12.4351 12.3261 12.3256C13.0581 11.5936 13.5858 10.7346 13.9093 9.81962C14.1893 10.6119 14.6226 11.3621 15.209 12.0243C16.7899 11.4603 18 10.4556 18 8.70949C18 6.58849 16.4331 5.58453 14.416 5.12998C13.8168 5.79908 13.3752 6.55941 13.0911 7.363Z" fill="black"/>
<path d="M12.1408 4.22369C12.5801 4.66308 12.897 5.17867 13.0911 5.7279C13.2853 5.17866 13.602 4.66308 14.0414 4.22369C14.481 3.78412 14.9968 3.46726 15.5464 3.27313C14.9968 3.07899 14.481 2.76214 14.0414 2.32256C13.602 1.88317 13.2853 1.3676 13.0911 0.818357C12.897 1.36759 12.5801 1.88317 12.1408 2.32256C11.7011 2.76214 11.1854 3.07899 10.6359 3.27313C11.1854 3.46726 11.7011 3.78412 12.1408 4.22369Z" fill="black"/>
<path d="M13.9093 16.3643C13.7151 15.815 13.3983 15.2994 12.959 14.8601C12.5193 14.4205 12.0036 14.1036 11.454 13.9095C12.0036 13.7154 12.5193 13.3985 12.959 12.9589C13.3983 12.5195 13.7151 12.0039 13.9093 11.4547C14.1034 12.004 14.4202 12.5195 14.8596 12.9589C15.2992 13.3985 15.815 13.7154 16.3645 13.9095C15.815 14.1036 15.2992 14.4205 14.8596 14.8601C14.4202 15.2994 14.1034 15.815 13.9093 16.3643Z" fill="black"/>
<path d="M4.77715 10.7691C5.21651 11.2085 5.53331 11.7241 5.72747 12.2734C5.92163 11.7241 6.23834 11.2085 6.67779 10.7691C7.11734 10.3296 7.6332 10.0127 8.18272 9.81858C7.6332 9.62445 7.11734 9.30759 6.67779 8.86801C6.23834 8.42862 5.92163 7.91305 5.72747 7.36381C5.53331 7.91304 5.21651 8.42862 4.77715 8.86801C4.3375 9.30759 3.82174 9.62445 3.27223 9.81858C3.82174 10.0127 4.3375 10.3296 4.77715 10.7691Z" fill="black"/>
</svg>
