<svg width="20" height="20" viewBox="0 0 20 20" fill="none" xmlns="http://www.w3.org/2000/svg">
<path d="M14.2568 16.4044C13.4285 15.9297 13.0596 14.9684 13.3049 14.0942C13.1864 14.2142 13.0809 14.3509 12.9923 14.5032C12.4255 15.4778 12.7619 16.724 13.7437 17.2867C14.7254 17.8494 15.9808 17.5155 16.5476 16.5409C16.6362 16.3885 16.7028 16.2296 16.7482 16.0676C16.1082 16.7156 15.0852 16.8791 14.2568 16.4044Z" fill="black"/>
<path fill-rule="evenodd" clip-rule="evenodd" d="M5.94298 1.8227L5.94947 1.81625L17.6215 10.9073C17.9516 11.1062 18.2633 11.3469 18.5489 11.6296L18.5546 11.634C20.4823 13.5477 20.4816 16.651 18.5538 18.5647C16.626 20.4784 13.5004 20.4784 11.5725 18.5647C11.2617 18.2561 11.0009 17.9166 10.7903 17.5561L1.78813 5.96547L0.130977 4.51165C-0.00614622 4.33017 -0.110304 3.78057 0.218801 3.45389C0.380379 3.2935 0.601458 3.53565 0.870028 3.82979C1.2855 4.28487 1.81462 4.86436 2.41281 4.27053C2.83242 3.854 2.289 3.22498 1.76485 2.61828C1.30761 2.08904 0.865064 1.57678 1.08931 1.2374L1.08488 1.23298C1.09939 1.2157 1.11434 1.20006 1.1297 1.18599C1.1401 1.17467 1.15138 1.16359 1.16355 1.15272C1.16845 1.14835 1.17349 1.14402 1.17868 1.13972L1.18308 1.14439C1.52497 0.921522 2.04109 1.36091 2.57432 1.81487C3.1855 2.33518 3.81915 2.87463 4.23877 2.4581C4.83697 1.86427 4.25319 1.33904 3.79478 0.92659C3.49846 0.659993 3.25453 0.440531 3.4161 0.280128C3.74519 -0.0465694 4.40848 -0.0521503 4.5913 0.0839698L5.94298 1.8227ZM8.52598 5.67694L8.53115 5.67181L16.6455 11.9919C16.8696 12.1277 17.0814 12.2913 17.2758 12.4828L17.2866 12.4912L17.2855 12.4924C18.6246 13.8217 18.6246 15.9769 17.2856 17.3061C15.9465 18.6354 13.7754 18.6354 12.4364 17.3061C12.2186 17.09 12.0363 16.852 11.8893 16.5992L5.64363 8.55763L4.48903 7.54472C4.39379 7.41865 4.32144 7.0369 4.55004 6.80999C4.66226 6.69859 4.81583 6.8668 5.00238 7.0711C5.29096 7.38718 5.65848 7.7897 6.07399 7.37723C6.36545 7.08792 5.98799 6.65099 5.62392 6.22957C5.30633 5.86197 4.99895 5.50619 5.15468 5.27045L5.15158 5.26737C5.16171 5.25531 5.17214 5.24439 5.18286 5.23457C5.19297 5.22359 5.20425 5.21293 5.21676 5.20257L5.21982 5.20581C5.45729 5.05103 5.81577 5.35623 6.18615 5.67153C6.61066 6.03294 7.0508 6.40766 7.34226 6.11832C7.75777 5.70586 7.35228 5.34103 7.03387 5.05455C6.82804 4.86936 6.65861 4.71692 6.77083 4.60552C6.99942 4.37861 7.46014 4.37472 7.58714 4.46927L8.52598 5.67694Z" fill="black"/>
</svg>
