<svg width="14" height="20" viewBox="0 0 14 20" fill="none" xmlns="http://www.w3.org/2000/svg">
<path d="M7 3.63636C6.04772 3.63636 5.13496 3.95695 4.29003 4.50484C4.07187 4.31126 3.87619 4.06964 3.7188 3.78643C3.11473 2.69939 3.30357 1.41117 4.1406 0.909091C4.58424 0.642978 5.12092 0.65112 5.61738 0.879433C5.93755 0.344322 6.4378 0 7.00005 0C7.55836 0 8.05556 0.339536 8.376 0.868281C8.86546 0.650926 9.39178 0.647375 9.8281 0.909091C10.6651 1.41117 10.8539 2.69939 10.2499 3.78643C10.0957 4.06394 9.90469 4.30151 9.69181 4.4931C8.85195 3.95237 7.94544 3.63636 7 3.63636Z" fill="black"/>
<path fill-rule="evenodd" clip-rule="evenodd" d="M14 14.5455C14 18.5621 10.866 20 7 20C3.13401 20 0 18.5621 0 14.5455C0 10.5288 3.13401 4.54545 7 4.54545C10.866 4.54545 14 10.5288 14 14.5455ZM7.85273 14.0988C7.85273 13.822 7.78597 13.6048 7.6524 13.4472C7.51884 13.2895 7.28423 13.1407 6.94862 13.0005C6.61302 12.8604 6.30311 12.7185 6.01883 12.5749C5.7346 12.4313 5.48974 12.2648 5.28423 12.0757C5.07878 11.8865 4.92123 11.6675 4.81165 11.4188C4.70206 11.1701 4.64726 10.8688 4.64726 10.515C4.64726 9.92293 4.84246 9.43598 5.23286 9.05412C5.62331 8.66877 6.14385 8.44456 6.79449 8.3815V7.27273H7.61128V8.40252C8.238 8.49711 8.72944 8.76161 9.0856 9.196C9.44518 9.62691 9.625 10.1752 9.625 10.8408H7.88867C7.88867 10.4764 7.82021 10.1962 7.68322 10C7.54623 9.80381 7.35104 9.70573 7.09763 9.70573C6.87156 9.70573 6.69521 9.7793 6.56848 9.92642C6.44522 10.0701 6.38354 10.2697 6.38354 10.5255C6.38354 10.7847 6.45547 10.9914 6.5993 11.1456C6.74317 11.2962 6.97431 11.4416 7.29282 11.5817C7.61128 11.7183 7.91094 11.862 8.1918 12.0126C8.47603 12.1597 8.72089 12.3279 8.92635 12.5171C9.13185 12.7063 9.29282 12.927 9.40924 13.1792C9.52567 13.4314 9.58388 13.7345 9.58388 14.0883C9.58388 14.6873 9.39728 15.176 9.02397 15.5544C8.65408 15.9327 8.14897 16.1534 7.50858 16.2165V17.2727H6.6918V16.2112C5.94518 16.1307 5.37155 15.8697 4.9709 15.4283C4.57362 14.9834 4.375 14.3983 4.375 13.6732H6.10615C6.10615 14.0725 6.19176 14.3773 6.36303 14.5875C6.53767 14.7942 6.78424 14.8975 7.10275 14.8975C7.3356 14.8975 7.51884 14.8275 7.6524 14.6873C7.78597 14.5437 7.85273 14.3475 7.85273 14.0988Z" fill="black"/>
</svg>
