<svg width="14" height="20" viewBox="0 0 14 20" fill="none" xmlns="http://www.w3.org/2000/svg">
<path d="M4.78713 8.62922C4.46737 8.95966 4.00906 9.16667 3.5 9.16667C2.53349 9.16667 1.75 8.42047 1.75 7.5C1.75 7.15696 1.85881 6.83811 2.04539 6.57308C1.36374 6.34529 0.875 5.72701 0.875 5C0.875 4.07953 1.65849 3.33333 2.625 3.33333L2.65157 3.33352L2.66941 3.33385C2.64014 3.19761 2.625 3.05832 2.625 2.91667C2.625 1.30583 4.58376 0 7 0C9.41624 0 11.375 1.30583 11.375 2.91667C11.375 3.05832 11.3599 3.19761 11.3306 3.33385C11.3454 3.3335 11.3602 3.33333 11.375 3.33333C12.3415 3.33333 13.125 4.07953 13.125 5C13.125 5.72701 12.6363 6.34529 11.9546 6.57308C12.1412 6.83811 12.25 7.15696 12.25 7.5C12.25 8.42047 11.4665 9.16667 10.5 9.16667C9.99094 9.16667 9.53263 8.95966 9.21287 8.62922L8.87265 10.2494C8.39635 10.0955 7.73329 10 7 10C6.26671 10 5.60365 10.0955 5.12735 10.2494L4.78713 8.62922Z" fill="black"/>
<path d="M0 18.75C0 19.2943 0.365215 19.7573 0.875 19.9289V20H13.125V19.9289C13.6348 19.7573 14 19.2943 14 18.75C14 18.0596 13.4124 17.5 12.6875 17.5C12.5335 17.5 12.3857 17.5253 12.2484 17.5717C12.2495 17.5479 12.25 17.524 12.25 17.5C12.25 16.5795 11.4665 15.8333 10.5 15.8333C10.0601 15.8333 9.65811 15.9879 9.35065 16.2431L8.82848 12.2646C9.31976 12.1132 9.625 11.9012 9.625 11.6667C9.625 11.2064 8.44975 10.8333 7 10.8333C5.55025 10.8333 4.375 11.2064 4.375 11.6667C4.375 11.9012 4.68024 12.1132 5.17152 12.2646L4.64935 16.2431C4.34189 15.9879 3.9399 15.8333 3.5 15.8333C2.53349 15.8333 1.75 16.5795 1.75 17.5C1.75 17.524 1.75053 17.5479 1.7516 17.5717C1.61432 17.5253 1.4665 17.5 1.3125 17.5C0.587624 17.5 0 18.0596 0 18.75Z" fill="black"/>
</svg>
