<svg width="19" height="14" viewBox="0 0 19 14" fill="none" xmlns="http://www.w3.org/2000/svg">
<path fill-rule="evenodd" clip-rule="evenodd" d="M2.118 0.5C2.118 0.223857 2.34186 0 2.618 0H3.91093C4.18708 0 4.41093 0.223858 4.41093 0.5V8.19585L5.94129 7.29702V0.5C5.94129 0.223857 6.16515 0 6.44129 0H7.73422C8.01036 0 8.23422 0.223858 8.23422 0.5V5.95031L9.76432 5.05164V0.5C9.76432 0.223857 9.98818 0 10.2643 0H11.5572C11.8334 0 12.0572 0.223858 12.0572 0.5V3.70493L13.5869 2.80654V0.5C13.5869 0.223857 13.8107 0 14.0869 0H15.3798C15.6559 0 15.8798 0.223858 15.8798 0.5V1.45983L16.609 1.03154C16.8471 0.891691 17.1506 0.973009 17.2869 1.21317L17.9402 2.3642C18.0765 2.60436 17.9939 2.91242 17.7558 3.05227L15.8798 4.15413V13.5C15.8798 13.7761 15.6559 14 15.3798 14H14.0869C13.8107 14 13.5869 13.7761 13.5869 13.5V5.50084L12.0572 6.39923V13.5C12.0572 13.7761 11.8334 14 11.5572 14H10.2643C9.98818 14 9.76432 13.7761 9.76432 13.5V7.74594L8.23422 8.64461V13.5C8.23422 13.7761 8.01036 14 7.73422 14H6.44129C6.16514 14 5.94129 13.7761 5.94129 13.5V9.99132L4.41093 10.8901V13.5C4.41093 13.7761 4.18708 14 3.91093 14H2.618C2.34186 14 2.118 13.7761 2.118 13.5V12.2369L1.40277 12.6569C1.16466 12.7968 0.861137 12.7155 0.724837 12.4753L0.0715826 11.3243C-0.0647176 11.0841 0.0178162 10.7761 0.255927 10.6362L2.118 9.54255V0.5Z" fill="black"/>
</svg>
