<svg width="14" height="16" viewBox="0 0 14 16" fill="none" xmlns="http://www.w3.org/2000/svg">
<path d="M11.2438 16H14V0H13.7089L8.55555 2.38134V4.97119L11.2438 3.79698V16Z" fill="black"/>
<path fill-rule="evenodd" clip-rule="evenodd" d="M2.47362 15.2L2.96336 11.5956H4.07566L3.57761 15.2H5.03024L5.52828 11.5956H7.24653V10.0747H5.7358L6.08443 7.58681H7.77778V6.05714H6.29195L6.7983 2.4H5.35397L4.84762 6.05714H3.72703L4.23337 2.4H2.78904L2.2827 6.05714H0.522946V7.58681H2.07518L1.72655 10.0747H0V11.5956H1.51903L1.02099 15.2H2.47362ZM4.29148 10.0747H3.17088L3.51951 7.58681H4.63181L4.29148 10.0747Z" fill="black"/>
</svg>
