<svg width="18" height="20" viewBox="0 0 18 20" fill="none" xmlns="http://www.w3.org/2000/svg">
<path fill-rule="evenodd" clip-rule="evenodd" d="M0 9.56521C0 4.28249 4.02944 0 9 0C13.9706 0 18 4.28249 18 9.56521L9 20L0 9.56521ZM0.818182 9.56521H0.850891C1.00255 8.57293 1.66288 7.82608 2.45455 7.82608C3.24621 7.82608 3.90654 8.57293 4.0582 9.56521H4.09091L7.54007 16.1636C7.29652 16.3554 7.08758 16.5939 6.92498 16.8668L0.818182 9.56521ZM11.0751 16.8668L17.1818 9.56521H17.1491C16.9974 8.57293 16.3371 7.82608 15.5455 7.82608C14.7538 7.82608 14.0935 8.57293 13.9418 9.56521H13.9091L10.4599 16.1636C10.7035 16.3554 10.9125 16.5939 11.0751 16.8668ZM10.0979 15.9271L13.0909 9.56521H13.0582C12.9065 8.57293 12.2462 7.82608 11.4545 7.82608C10.6629 7.82608 10.0026 8.57293 9.85089 9.56521H9.40909V15.6882C9.65274 15.7317 9.88425 15.8133 10.0979 15.9271ZM8.59091 15.6882V9.56521H8.14911C7.99745 8.57293 7.33712 7.82608 6.54545 7.82608C5.75379 7.82608 5.09346 8.57293 4.9418 9.56521H4.90909L7.90207 15.9271C8.11575 15.8133 8.34726 15.7317 8.59091 15.6882Z" fill="black"/>
</svg>
