<svg width="16" height="18" viewBox="0 0 16 18" fill="none" xmlns="http://www.w3.org/2000/svg">
<path d="M4.05771 0.201251C3.35621 0.61427 3.11469 1.52694 3.51825 2.23975L8.18935 10.4903C8.1384 10.729 7.99129 10.9455 7.76475 11.0769L6.16074 12.0067C5.73475 12.2537 5.1892 12.1057 4.94222 11.6761C5.1892 12.1057 5.04397 12.6543 4.61797 12.9013L3.01397 13.8311C2.58797 14.0781 2.04242 13.9301 1.79544 13.5006L0.298866 10.8978C0.104606 11.4103 0 11.9548 0 12.5193C0 15.5462 3.00776 18 6.71801 18C10.4283 18 13.436 15.5462 13.436 12.5193C13.436 11.3916 13.0186 10.3435 12.3028 9.47215C12.3179 9.44874 12.3323 9.42477 12.3462 9.40025L15.8035 3.29357C16.2092 2.57696 15.9664 1.65942 15.2612 1.24419C14.5559 0.828969 13.6553 1.0733 13.2496 1.78991L9.95015 7.61777L6.05859 0.744074C5.65503 0.0312627 4.7592 -0.211767 4.05771 0.201251Z" fill="black"/>
<path d="M2.9058 7.39296C2.66168 6.96176 2.80778 6.40967 3.23213 6.15983L3.82218 5.81242C4.24653 5.56258 4.78843 5.70959 5.03256 6.14079L6.93403 9.49937C7.17815 9.93056 7.03205 10.4827 6.6077 10.7325L6.01765 11.0799C5.5933 11.3297 5.05139 11.1827 4.80727 10.7515L2.9058 7.39296Z" fill="black"/>
<path d="M0.728318 8.45772C0.303968 8.70757 0.157864 9.25966 0.401987 9.69085L1.98564 12.4881C2.22976 12.9193 2.77167 13.0663 3.19602 12.8164L3.9865 12.351C4.41085 12.1012 4.55695 11.5491 4.31283 11.1179L2.72917 8.32068C2.48505 7.88948 1.94315 7.74247 1.5188 7.99231L0.728318 8.45772Z" fill="black"/>
</svg>
