<svg width="14" height="20" viewBox="0 0 14 20" fill="none" xmlns="http://www.w3.org/2000/svg">
<path d="M5.24457 0C4.76434 0 4.375 0.38932 4.375 0.869568C4.375 1.34982 4.76434 1.73914 5.24457 1.73914H8.75543C9.23566 1.73914 9.625 1.34982 9.625 0.869568C9.625 0.38932 9.23566 0 8.75543 0H5.24457Z" fill="black"/>
<path fill-rule="evenodd" clip-rule="evenodd" d="M2.625 3.60866C2.625 3.05637 3.07269 2.60866 3.625 2.60866H10.375C10.9273 2.60866 11.375 3.05637 11.375 3.60866V4.21737C11.375 4.76965 10.9273 5.21737 10.375 5.21737L9.625 5.21732V6.59254C12.1903 7.62453 14 10.124 14 13.0434C14 16.8854 10.866 20 7 20C3.13403 20 0 16.8854 0 13.0434C0 10.124 1.80963 7.62453 4.375 6.59254V5.21732L3.625 5.21737C3.07269 5.21737 2.625 4.76965 2.625 4.21737V3.60866ZM4.37494 16.5223C7.27441 16.5223 9.62494 14.1864 9.62494 11.3049C9.62494 10.0655 9.19012 8.9271 8.46381 8.03205C10.6509 8.66188 12.2499 10.6674 12.2499 13.044C12.2499 15.9255 9.89941 18.2614 6.99994 18.2614C5.34753 18.2614 3.87341 17.5027 2.91101 16.3168C3.37567 16.4506 3.86688 16.5223 4.37494 16.5223Z" fill="black"/>
</svg>
