<svg width="20" height="18" viewBox="0 0 20 18" fill="none" xmlns="http://www.w3.org/2000/svg">
<path d="M4.97909 7.13241C5.40053 7.06519 5.72391 6.76033 5.87004 6.3884C5.96308 6.15162 6.07983 5.91906 6.22101 5.69336C6.36225 5.46764 6.52209 5.25806 6.69772 5.06531C6.97368 4.76253 7.09807 4.35165 6.95045 3.9812L5.60393 0.602639C5.38509 0.0535766 4.68327 -0.184457 4.17108 0.162013C3.04795 0.921756 2.07365 1.90427 1.33274 3.08866C0.591813 4.27305 0.156974 5.54304 0.00564962 6.82057C-0.0633734 7.40318 0.510889 7.84512 1.13554 7.74548L4.97909 7.13241Z" fill="black"/>
<path d="M11.9679 13.0589C11.6962 12.758 11.2556 12.6527 10.8398 12.7218C10.5676 12.767 10.2872 12.7906 10.0009 12.7906C9.71456 12.7906 9.43415 12.767 9.16194 12.7218C8.74617 12.6527 8.3056 12.758 8.03389 13.0589L5.54255 15.818C5.13317 16.2714 5.26107 16.962 5.84451 17.1984C7.11661 17.7139 8.5225 18 10.0009 18C11.4792 18 12.8852 17.7139 14.1572 17.1984C14.7406 16.962 14.8685 16.2714 14.4592 15.818L11.9679 13.0589Z" fill="black"/>
<path d="M14.1299 6.3884C14.2761 6.76033 14.5994 7.06519 15.0209 7.13241L18.8644 7.74548C19.4891 7.84512 20.0634 7.40318 19.9943 6.82057C19.843 5.54304 19.4082 4.27305 18.6673 3.08866C17.9263 1.90427 16.952 0.921756 15.8289 0.162013C15.3167 -0.184457 14.6149 0.0535766 14.396 0.602639L13.0495 3.9812C12.9019 4.35165 13.0263 4.76253 13.3023 5.06531C13.4779 5.25806 13.6377 5.46764 13.779 5.69336C13.9201 5.91906 14.0369 6.15162 14.1299 6.3884Z" fill="black"/>
<path d="M10.0009 11.9225C12.0792 11.9225 13.7639 10.3676 13.7639 8.44953C13.7639 6.53149 12.0792 4.9766 10.0009 4.9766C7.92266 4.9766 6.23792 6.53149 6.23792 8.44953C6.23792 10.3676 7.92266 11.9225 10.0009 11.9225Z" fill="black"/>
</svg>
