<svg width="16" height="22" viewBox="0 0 16 22" fill="none" xmlns="http://www.w3.org/2000/svg">
<path d="M10.5608 17.4861H5.4392C5.02815 17.4861 4.79269 17.9618 5.03794 18.2968L7.59874 21.7952C7.79866 22.0683 8.20134 22.0683 8.40126 21.7952L10.9621 18.2968C11.2073 17.9618 10.9719 17.4861 10.5608 17.4861Z" fill="black"/>
<path fill-rule="evenodd" clip-rule="evenodd" d="M2.93734 13.4542C2.76144 12.4743 2.66667 11.4323 2.66667 10.3518C2.66667 4.99063 5.00003 0.575686 8 0C11 0.575686 13.3333 4.99082 13.3333 10.352C13.3333 11.3859 13.2466 12.3846 13.085 13.3274L15.2727 14.4639L16 17.4862L11.5556 16.029H3.55556L0 17.4862L1.09091 14.4639L2.93734 13.4542ZM9.77778 4.85733C9.77778 5.93037 8.98184 6.80024 8 6.80024C7.01816 6.80024 6.22222 5.93037 6.22222 4.85733C6.22222 3.7843 7.01816 2.91443 8 2.91443C8.98184 2.91443 9.77778 3.7843 9.77778 4.85733ZM8 11.6576C8.98184 11.6576 9.77778 10.7877 9.77778 9.71471C9.77778 8.64167 8.98184 7.7718 8 7.7718C7.01816 7.7718 6.22222 8.64167 6.22222 9.71471C6.22222 10.7877 7.01816 11.6576 8 11.6576Z" fill="black"/>
</svg>
