<svg width="18" height="18" viewBox="0 0 18 18" fill="none" xmlns="http://www.w3.org/2000/svg">
<path d="M0 4.5C0 2.01472 2.01477 0 4.5 0H14.77C12.2848 0 10.27 2.01472 10.27 4.5C10.27 6.98528 12.2848 9 14.77 9H13.5C15.1656 9 16.6199 9.90495 17.3979 11.25H14.7714C14.4607 11.25 14.2089 11.5018 14.2089 11.8125C14.2089 12.1232 14.4607 12.375 14.7714 12.375H17.8583C17.9508 12.7346 18 13.1115 18 13.5C18 15.8478 16.202 17.7757 13.9078 17.9818C12.9315 17.8494 12.1791 17.0126 12.1791 16V15.5C12.1791 14.3954 13.0745 13.5 14.1791 13.5H7.44275C7.44275 12.156 6.85364 10.9496 5.91931 10.125H8.57178C8.88245 10.125 9.13428 9.87315 9.13428 9.5625C9.13428 9.25185 8.88245 9 8.57178 9H4.5C3.35876 9 2.31677 8.57516 1.52344 7.875H4.51208C4.82275 7.875 5.07458 7.62315 5.07458 7.3125C5.07458 7.00185 4.82275 6.75 4.51208 6.75H0.602051C0.219116 6.0881 0 5.31964 0 4.5Z" fill="black"/>
<path d="M11.4268 3.37524H13.5364C14.4684 3.37524 15.2239 2.61972 15.2239 1.68774C15.2239 1.06215 14.8835 0.516068 14.3778 0.22464C12.9316 0.700317 11.8092 1.88925 11.4268 3.37524Z" fill="black"/>
<path d="M2.02979 16.3125C2.02979 15.3805 2.78528 14.625 3.71729 14.625H11.9414C11.9865 14.625 12.031 14.6268 12.0752 14.6302C12.1101 14.633 12.1448 14.6368 12.1791 14.6416C11.3596 14.7571 10.7292 15.4612 10.7292 16.3125C10.7292 17.1638 11.3596 17.8679 12.1791 17.9834C12.1014 17.9943 12.0221 18 11.9414 18H3.71729C2.78528 18 2.02979 17.2445 2.02979 16.3125Z" fill="black"/>
</svg>
