<svg width="20" height="18" viewBox="0 0 20 18" fill="none" xmlns="http://www.w3.org/2000/svg">
<path d="M15.6124 0.267923C15.9517 -0.0893064 16.5018 -0.0893082 16.841 0.267921C17.1803 0.62515 17.1803 1.20433 16.841 1.56156L1.4831 17.7321C1.14382 18.0893 0.593737 18.0893 0.254459 17.7321C-0.0848197 17.3748 -0.0848195 16.7957 0.254459 16.4384L15.6124 0.267923Z" fill="black"/>
<path d="M14.384 5.44199C17.2463 8.45574 17.6939 13.0492 15.7266 16.557C16.3436 16.1732 16.9253 15.7022 17.4554 15.144C20.8481 11.5718 20.8482 5.78015 17.4556 2.20784L14.384 5.44199Z" fill="black"/>
<path d="M11.2183 12.736L7.90306 12.2662L6.12356 14.1399C6.91558 13.8948 8.15284 13.8789 9.45819 14.1473C10.075 14.2741 10.6362 14.4499 11.1116 14.6543C11.4869 14.6406 11.8178 14.3755 11.9257 13.9886L11.9459 13.9161C12.0977 13.3712 11.7529 12.8118 11.2183 12.736Z" fill="black"/>
</svg>
