<svg width="18" height="18" viewBox="0 0 18 18" fill="none" xmlns="http://www.w3.org/2000/svg">
<path fill-rule="evenodd" clip-rule="evenodd" d="M13.5 9C13.5 11.4853 11.4853 13.5 9 13.5C6.51472 13.5 4.5 11.4853 4.5 9C4.5 6.51472 6.51472 4.5 9 4.5C11.4853 4.5 13.5 6.51472 13.5 9ZM12 9C12 10.6569 10.6569 12 9 12C7.34315 12 6 10.6569 6 9C6 7.34315 7.34315 6 9 6C10.6569 6 12 7.34315 12 9Z" fill="black"/>
<path fill-rule="evenodd" clip-rule="evenodd" d="M8.25 0.375C8.25 0.167893 8.41789 0 8.625 0H9.375C9.58211 0 9.75 0.167893 9.75 0.375V1.53703C13.2933 1.88883 16.1112 4.70669 16.463 8.25H17.625C17.8321 8.25 18 8.41789 18 8.625V9.375C18 9.58211 17.8321 9.75 17.625 9.75H16.463C16.1112 13.2933 13.2933 16.1112 9.75 16.463V17.625C9.75 17.8321 9.58211 18 9.375 18H8.625C8.41789 18 8.25 17.8321 8.25 17.625V16.463C4.70669 16.1112 1.88883 13.2933 1.53703 9.75H0.375C0.167893 9.75 0 9.58211 0 9.375V8.625C0 8.41789 0.167893 8.25 0.375 8.25H1.53703C1.88883 4.70669 4.70669 1.88883 8.25 1.53703V0.375ZM3.04642 9.75H3.375C3.58211 9.75 3.75 9.58211 3.75 9.375V8.625C3.75 8.41789 3.58211 8.25 3.375 8.25H3.04642C3.38486 5.53596 5.53596 3.38486 8.25 3.04642V3.375C8.25 3.58211 8.41789 3.75 8.625 3.75H9.375C9.58211 3.75 9.75 3.58211 9.75 3.375V3.04642C12.464 3.38486 14.6151 5.53596 14.9536 8.25H14.625C14.4179 8.25 14.25 8.41789 14.25 8.625V9.375C14.25 9.58211 14.4179 9.75 14.625 9.75H14.9536C14.6151 12.464 12.464 14.6151 9.75 14.9536V14.625C9.75 14.4179 9.58211 14.25 9.375 14.25H8.625C8.41789 14.25 8.25 14.4179 8.25 14.625V14.9536C5.53596 14.6151 3.38486 12.464 3.04642 9.75Z" fill="black"/>
</svg>
