<svg width="20" height="20" viewBox="0 0 20 20" fill="none" xmlns="http://www.w3.org/2000/svg">
<path fill-rule="evenodd" clip-rule="evenodd" d="M15.2193 16.8876V10.6635C15.2193 7.65566 12.8825 5.21727 10 5.21727C7.11753 5.21727 4.78079 7.65558 4.78075 10.6634V16.8876H15.2193ZM12.2164 10.7212C12.2164 8.56249 10.8019 6.74848 8.88741 6.23319C9.24296 6.1375 9.61577 6.08659 9.99997 6.08659C12.453 6.08659 14.4415 8.16158 14.4415 10.7212V16.0185H12.2164V10.7212Z" fill="black"/>
<path d="M3.33333 18.3004C3.33333 17.7983 3.74034 17.3913 4.24242 17.3913H15.7575C16.2596 17.3913 16.6666 17.7983 16.6666 18.3004V19.0909C16.6666 19.593 16.2596 20 15.7575 20H4.24242C3.74034 20 3.33333 19.593 3.33333 19.0909V18.3004Z" fill="black"/>
<path d="M9.16669 0.833331C9.16669 0.373095 9.53978 0 10 0C10.4603 0 10.8334 0.373095 10.8334 0.833331V2.64492C10.8334 3.10516 10.4603 3.47825 10 3.47825C9.53978 3.47825 9.16669 3.10516 9.16669 2.64492V0.833331Z" fill="black"/>
<path d="M19.1304 11.3045C19.6107 11.3045 20 11.6938 20 12.1741C20 12.6543 19.6107 13.0436 19.1304 13.0436H17.5362C17.056 13.0436 16.6667 12.6543 16.6667 12.1741C16.6667 11.6938 17.056 11.3045 17.5362 11.3045H19.1304Z" fill="black"/>
<path d="M16.7677 4.09305C17.0931 3.75347 17.6208 3.75347 17.9462 4.09305C18.2717 4.43264 18.2717 4.98322 17.9462 5.3228L16.7677 6.55255C16.4423 6.89214 15.9146 6.89214 15.5892 6.55255C15.2638 6.21296 15.2638 5.66239 15.5892 5.3228L16.7677 4.09305Z" fill="black"/>
<path d="M3.43441 4.09305C3.10898 3.75347 2.58134 3.75347 2.2559 4.09305C1.93047 4.43264 1.93047 4.98322 2.2559 5.3228L3.43441 6.55255C3.75985 6.89214 4.28749 6.89214 4.61292 6.55255C4.93836 6.21296 4.93836 5.66239 4.61292 5.3228L3.43441 4.09305Z" fill="black"/>
<path d="M2.46376 11.3045C2.94401 11.3045 3.33333 11.6938 3.33333 12.1741C3.33333 12.6543 2.94401 13.0436 2.46376 13.0436H0.869564C0.389318 13.0436 -2.01176e-08 12.6543 0 12.1741C2.01176e-08 11.6938 0.389317 11.3045 0.869564 11.3045H2.46376Z" fill="black"/>
</svg>
