<svg width="14" height="14" viewBox="0 0 14 14" fill="none" xmlns="http://www.w3.org/2000/svg">
<path fill-rule="evenodd" clip-rule="evenodd" d="M13.3639 9.54553L13.6957 9.04782C13.8936 8.4001 14 7.71248 14 7C14 3.13401 10.866 0 7 0C5.90265 0 4.86428 0.252503 3.93981 0.702578C3.86401 0.660373 3.7803 0.626884 3.68907 0.604076L2.5153 0.310634C1.88416 0.152847 1.27277 0.630206 1.27277 1.28078V2.45455C1.27277 2.60172 1.30278 2.73762 1.35583 2.85875C0.503504 4.01845 0 5.45043 0 7C0 7.71213 0.106339 8.39942 0.304004 9.04686L0.636454 9.54553H0.636169L1.9089 11.4546H1.90894V13.9997H3.81803V11.4546H5.09106V13.9997H6.36379V11.4546H7.63617V13.9997H8.9089V11.4546H10.1817V13.9997H12.0908V11.4545L13.3634 9.54553H13.3639ZM8.27264 9.54553H5.72729L6.3636 7.6366H7.63632L8.27264 9.54553ZM5.72712 6.36356C5.72712 7.41792 4.87239 8.27265 3.81803 8.27265C2.76366 8.27265 1.90894 7.41792 1.90894 6.36356L1.90913 6.33604V3.81787L3.81892 4.45447C4.87287 4.45495 5.72712 5.30949 5.72712 6.36356ZM12.0909 6.36356C12.0909 7.41792 11.2362 8.27265 10.1819 8.27265C9.12749 8.27265 8.27277 7.41792 8.27277 6.36356C8.27277 5.30946 9.12708 4.45489 10.1811 4.45447L12.0909 3.81787V6.3461L12.0909 6.36356Z" fill="black"/>
</svg>
