<svg width="16" height="18" viewBox="0 0 16 18" fill="none" xmlns="http://www.w3.org/2000/svg">
<path fill-rule="evenodd" clip-rule="evenodd" d="M8 15.4286C12.4183 15.4286 16 11.9748 16 7.71429C16 3.4538 12.4183 0 8 0C6.69243 0 5.45811 0.302499 4.36821 0.838894L1.87241 0.23723C1.37017 0.116155 0.888867 0.505858 0.888867 1.03359V4.17673C0.320801 5.23635 0 6.43919 0 7.71429C0 10.1978 1.21704 12.4072 3.10737 13.8182L4.24233 11.1429L5.95234 15.1736C6.60591 15.3399 7.29219 15.4286 8 15.4286ZM2.76655 4.37228C3.03379 4.58996 3.81797 5.14286 4.88882 5.14286C5.95967 5.14286 6.74385 4.58996 7.01108 4.37228C7.07681 4.31878 7.11104 4.23703 7.11104 4.15115C7.11104 3.87774 6.76606 3.70721 6.53198 3.83926C6.14185 4.05934 5.57402 4.28572 4.88882 4.28572C4.39912 4.28572 3.96924 4.17019 3.62148 4.02387C3.48267 3.96547 3.35693 3.90217 3.24565 3.83926C3.01157 3.70721 2.6666 3.87774 2.6666 4.15115C2.6666 4.23703 2.70088 4.31878 2.76655 4.37228ZM9.46792 3.83926C9.23384 3.70721 8.88887 3.87774 8.88887 4.15115C8.88887 4.23703 8.92314 4.31878 8.98882 4.37228C9.25605 4.58996 10.0402 5.14286 11.1111 5.14286C12.1819 5.14286 12.9661 4.58996 13.2333 4.37228C13.2991 4.31878 13.3333 4.23703 13.3333 4.15115C13.3333 3.87774 12.9883 3.70721 12.7542 3.83926C12.3641 4.05934 11.7963 4.28572 11.1111 4.28572C10.4259 4.28572 9.85806 4.05934 9.46792 3.83926ZM10.9324 10.4835H5.18882C4.19756 10.4835 3.39395 9.67173 3.39395 8.67033C3.39395 7.66893 4.19756 6.85714 5.18887 6.85714H10.9324C11.9237 6.85719 12.7272 7.66897 12.7272 8.67033C12.7272 9.6717 11.9237 10.4835 10.9324 10.4835Z" fill="black"/>
<path d="M4.24248 18C5.17969 18 5.93945 17.2325 5.93945 16.2857C5.93945 15.8274 5.76143 15.411 5.47134 15.1034L4.24248 12L3.01362 15.1034C2.72354 15.411 2.54551 15.8274 2.54551 16.2857C2.54551 17.2325 3.30527 18 4.24248 18Z" fill="black"/>
</svg>
