<svg width="18" height="18" viewBox="0 0 18 18" fill="none" xmlns="http://www.w3.org/2000/svg">
<path fill-rule="evenodd" clip-rule="evenodd" d="M18 8.76364C18 13.6037 14.0719 17.5273 9.22638 17.5273C8.14586 17.5273 7.11097 17.3322 6.15508 16.9753L0 18L1.02193 11.8754C0.65413 10.9084 0.452758 9.85951 0.452758 8.76364C0.452758 3.92362 4.38084 0 9.22638 0C14.0719 0 18 3.92362 18 8.76364ZM7.27672 8.76364C7.27672 5.85684 9.09836 3.37502 11.6635 2.39503C10.9067 2.10588 10.0851 1.94748 9.22642 1.94748C5.45767 1.94748 2.4025 4.99918 2.4025 8.76364C2.4025 12.5281 5.45767 15.5798 9.22642 15.5798C10.0851 15.5798 10.9067 15.4214 11.6635 15.1323C9.09836 14.1523 7.27672 11.6704 7.27672 8.76364ZM12.0393 4.64001L12.3914 5.77496C12.3962 5.78912 12.405 5.80141 12.4166 5.81019C12.4282 5.81898 12.4421 5.82385 12.4564 5.82415H13.5976C13.6401 5.82343 13.6817 5.837 13.7162 5.86287C13.7508 5.88874 13.7766 5.92555 13.7897 5.96788C13.8028 6.01021 13.8026 6.05584 13.7892 6.09806C13.7757 6.14029 13.7497 6.17688 13.715 6.20246L12.7923 6.90614C12.7804 6.91475 12.7716 6.92715 12.767 6.94146C12.7625 6.95578 12.7625 6.97126 12.767 6.98558L13.1281 8.12054C13.1416 8.16238 13.1419 8.20761 13.1292 8.24969C13.1165 8.29177 13.0913 8.32853 13.0574 8.35464C13.0234 8.38075 12.9824 8.39487 12.9402 8.39495C12.8981 8.39503 12.857 8.38108 12.823 8.3551L11.8894 7.65521C11.8781 7.64601 11.8641 7.64101 11.8497 7.64101C11.8353 7.64101 11.8214 7.64601 11.81 7.65521L10.8855 8.35888C10.8514 8.38264 10.8111 8.39475 10.7701 8.39357C10.7292 8.39238 10.6895 8.37796 10.6567 8.35227C10.6239 8.32658 10.5995 8.29089 10.5868 8.25008C10.5741 8.20927 10.5737 8.16535 10.5858 8.12432L10.9469 6.98937C10.9514 6.97504 10.9514 6.95956 10.9469 6.94525C10.9423 6.93093 10.9334 6.91854 10.9216 6.90992L9.98448 6.19868C9.94972 6.1731 9.92369 6.1365 9.91024 6.09428C9.89679 6.05206 9.89662 6.00643 9.90975 5.9641C9.92288 5.92176 9.94863 5.88496 9.98321 5.85909C10.0178 5.83322 10.0594 5.81964 10.1019 5.82036H11.243C11.2565 5.82069 11.2698 5.81694 11.2814 5.80956C11.2929 5.80218 11.3021 5.79148 11.308 5.77875L11.6601 4.64379C11.6733 4.60225 11.6985 4.56607 11.7323 4.54029C11.766 4.51451 11.8067 4.50043 11.8484 4.50001C11.8902 4.49959 11.9311 4.51286 11.9653 4.53796C11.9995 4.56306 12.0254 4.59874 12.0393 4.64001ZM13.6675 11.0123L13.3154 9.87739C13.3015 9.83612 13.2756 9.80045 13.2414 9.77534C13.2071 9.75024 13.1663 9.73697 13.1245 9.73739C13.0827 9.73781 13.0421 9.75189 13.0084 9.77767C12.9746 9.80345 12.9494 9.83964 12.9362 9.88117L12.5841 11.0161C12.5782 11.0289 12.5689 11.0396 12.5574 11.0469C12.5459 11.0543 12.5326 11.0581 12.5191 11.0577H11.3779C11.3354 11.057 11.2938 11.0706 11.2593 11.0965C11.2247 11.1223 11.199 11.1591 11.1858 11.2015C11.1727 11.2438 11.1729 11.2894 11.1863 11.3317C11.1998 11.3739 11.2258 11.4105 11.2606 11.4361L12.1977 12.1473C12.2095 12.1559 12.2184 12.1683 12.2229 12.1826C12.2275 12.1969 12.2275 12.2124 12.223 12.2267L11.8618 13.3617C11.8498 13.4027 11.8501 13.4467 11.8628 13.4875C11.8755 13.5283 11.9 13.564 11.9328 13.5897C11.9656 13.6153 12.0052 13.6298 12.0462 13.6309C12.0871 13.6321 12.1274 13.62 12.1616 13.5963L13.0861 12.8926C13.0974 12.8834 13.1114 12.8784 13.1258 12.8784C13.1402 12.8784 13.1541 12.8834 13.1655 12.8926L14.099 13.5925C14.1331 13.6185 14.1742 13.6324 14.2163 13.6323C14.2584 13.6323 14.2995 13.6181 14.3334 13.592C14.3674 13.5659 14.3926 13.5292 14.4053 13.4871C14.418 13.445 14.4176 13.3998 14.4042 13.3579L14.0431 12.223C14.0385 12.2086 14.0385 12.1932 14.0431 12.1788C14.0477 12.1645 14.0565 12.1521 14.0683 12.1435L14.991 11.4398C15.0258 11.4143 15.0518 11.3777 15.0653 11.3354C15.0787 11.2932 15.0789 11.2476 15.0658 11.2053C15.0526 11.1629 15.0269 11.1261 14.9923 11.1003C14.9577 11.0744 14.9161 11.0608 14.8737 11.0615H13.7325C13.7182 11.0612 13.7043 11.0564 13.6926 11.0476C13.681 11.0388 13.6723 11.0265 13.6675 11.0123Z" fill="black"/>
</svg>
