<svg width="16" height="18" viewBox="0 0 16 18" fill="none" xmlns="http://www.w3.org/2000/svg">
<path d="M9.698 11.1429C9.69776 12.0894 8.90841 12.8567 7.93472 12.8567C6.96103 12.8567 6.17168 12.0894 6.17144 11.1429C6.17144 10.8099 6.26909 10.4987 6.43806 10.2356L7.93472 5.14286L9.43137 10.2356C9.60035 10.4987 9.698 10.8099 9.698 11.1429Z" fill="black"/>
<path fill-rule="evenodd" clip-rule="evenodd" d="M4.40825 0.9C4.40825 0.402944 4.80702 0 5.29892 0H10.5707C11.0626 0 11.4614 0.402944 11.4614 0.9V3.37332C11.9377 3.60346 12.3868 3.87875 12.8029 4.19345L13.2405 3.76798C13.595 3.42335 14.1697 3.42335 14.5242 3.76798L15.7341 4.94434C16.0886 5.28897 16.0886 5.84772 15.7341 6.19234L15.0466 6.86081C15.5733 7.89272 15.8695 9.05559 15.8695 10.2857C15.8695 14.5462 12.317 18 7.93475 18C3.55251 18 0 14.5462 0 10.2857C0 7.25679 1.79554 4.63558 4.40825 3.37327V0.9ZM7.93475 16.2C11.3986 16.2 14.0881 13.4872 14.0881 10.2857C14.0881 7.08418 11.3986 4.37143 7.93475 4.37143C4.47091 4.37143 1.78136 7.08418 1.78136 10.2857C1.78136 13.4872 4.47091 16.2 7.93475 16.2Z" fill="black"/>
</svg>
