<svg width="18" height="18" viewBox="0 0 18 18" fill="none" xmlns="http://www.w3.org/2000/svg">
<path d="M12.8083 2.73475L10.8082 4.78886L10.5621 2.05411L12.5622 0L12.8083 2.73475Z" fill="black"/>
<path d="M15.6417 2.30676C15.308 1.96407 14.767 1.96407 14.4333 2.30676L6.4618 10.4935C6.12812 10.8362 6.12812 11.3918 6.4618 11.7345C6.79549 12.0772 7.33649 12.0772 7.67017 11.7345L15.6417 3.54776C15.9754 3.20507 15.9754 2.64946 15.6417 2.30676Z" fill="black"/>
<path d="M9.9653 5.94329C8.94766 5.24464 7.72433 4.83726 6.40835 4.83726C2.86912 4.83726 0 7.78384 0 11.4186C0 15.0534 2.86912 18 6.40835 18C9.94759 18 12.8167 15.0534 12.8167 11.4186C12.8167 10.2532 12.5217 9.15848 12.0043 8.20899L10.6664 9.58299C10.8917 10.1453 11.0167 10.7645 11.0167 11.4186C11.0167 14.1048 8.90857 16.2 6.40835 16.2C3.90813 16.2 1.8 14.1048 1.8 11.4186C1.8 8.73245 3.90813 6.63726 6.40835 6.63726C7.22877 6.63726 8.00697 6.86286 8.68232 7.26091L9.9653 5.94329Z" fill="black"/>
<path d="M8.09166 7.86687C7.58328 7.61225 7.0121 7.46938 6.40842 7.46938C4.28488 7.46938 2.56341 9.23732 2.56341 11.4182C2.56341 13.5991 4.28488 15.367 6.40842 15.367C8.53196 15.367 10.2534 13.5991 10.2534 11.4182C10.2534 10.9925 10.1879 10.5826 10.0665 10.1984L8.40064 11.9093C8.18567 12.8862 7.34311 13.567 6.40842 13.567C5.3239 13.567 4.36341 12.6505 4.36341 11.4182C4.36341 10.1859 5.3239 9.26938 6.40842 9.26938C6.50816 9.26938 6.60685 9.27713 6.70383 9.29216L8.09166 7.86687Z" fill="black"/>
<path d="M13.225 7.27039L15.2252 5.2162L18 5.58394L15.9998 7.63813L13.225 7.27039Z" fill="black"/>
</svg>
