<svg width="24" height="24" viewBox="0 0 24 24" fill="none" xmlns="http://www.w3.org/2000/svg">
<path fill-rule="evenodd" clip-rule="evenodd" d="M1.21709 9.46187L1.45475 9.81836H1.45447L2.36357 11.182H2.66667V13H3.5V11.182H4.33317V13H5.1665V11.182H6.1319C6.45986 10.679 6.85073 10.2207 7.29337 9.81844H7.2934C8.30348 8.9004 9.58309 8.27366 10.9995 8.07096C10.9998 8.04735 11 8.02369 11 8C11 5.23858 8.76142 3 6 3C3.23858 3 1 5.23858 1 8C1 8.5086 1.07594 8.99946 1.21709 9.46187ZM5.54548 8.45451H6.45457L6.90912 9.81814H5.09094L5.54548 8.45451ZM9.29729 5.56988C9.46803 5.39915 9.74485 5.39915 9.91559 5.56988C10.0863 5.74062 10.0863 6.01744 9.91559 6.18818L9.27664 6.82712L9.91561 7.46609C10.0863 7.63683 10.0863 7.91365 9.91561 8.08439C9.74487 8.25513 9.46805 8.25513 9.29731 8.08439L8.65835 7.44542L8.01946 8.0843C7.84873 8.25504 7.57191 8.25504 7.40117 8.0843C7.23043 7.91356 7.23043 7.63674 7.40117 7.46601L8.04005 6.82712L7.40119 6.18827C7.23045 6.01753 7.23045 5.74071 7.40119 5.56997C7.57193 5.39923 7.84875 5.39923 8.01949 5.56997L8.65835 6.20883L9.29729 5.56988ZM4.77148 5.56988C4.60074 5.39915 4.32392 5.39915 4.15318 5.56988L3.51424 6.20883L2.87538 5.56997C2.70464 5.39923 2.42782 5.39923 2.25708 5.56997C2.08635 5.74071 2.08635 6.01753 2.25708 6.18827L2.89594 6.82712L2.25706 7.46601C2.08632 7.63674 2.08632 7.91356 2.25706 8.0843C2.4278 8.25504 2.70462 8.25504 2.87536 8.0843L3.51424 7.44542L4.15321 8.08439C4.32394 8.25513 4.60076 8.25513 4.7715 8.08439C4.94224 7.91365 4.94224 7.63683 4.7715 7.46609L4.13253 6.82712L4.77148 6.18818C4.94222 6.01744 4.94222 5.74062 4.77148 5.56988ZM22.5452 9.81836L22.7829 9.46187C22.9241 8.99946 23 8.5086 23 8C23 5.23858 20.7614 3 18 3C15.2386 3 13 5.23858 13 8C13 8.02369 13.0002 8.04735 13.0005 8.07096C14.4169 8.27366 15.6965 8.9004 16.7066 9.81844H16.7066C17.1493 10.2207 17.5401 10.679 17.8681 11.182H18.8335V13H19.6668V11.182H20.5V13H21.3333V11.182H21.6364L22.5455 9.81836H22.5452ZM17.5454 8.45451H18.4545L18.9091 9.81814H17.0909L17.5454 8.45451ZM21.9156 5.56988C21.7449 5.39915 21.468 5.39915 21.2973 5.56988L20.6583 6.20883L20.0195 5.56997C19.8488 5.39923 19.5719 5.39923 19.4012 5.56997C19.2305 5.74071 19.2305 6.01753 19.4012 6.18827L20.04 6.82712L19.4012 7.46601C19.2304 7.63674 19.2304 7.91356 19.4012 8.0843C19.5719 8.25504 19.8487 8.25504 20.0195 8.0843L20.6583 7.44542L21.2973 8.08439C21.4681 8.25513 21.7449 8.25513 21.9156 8.08439C22.0863 7.91365 22.0863 7.63683 21.9156 7.46609L21.2766 6.82712L21.9156 6.18818C22.0863 6.01744 22.0863 5.74062 21.9156 5.56988ZM16.1532 5.56988C16.3239 5.39915 16.6007 5.39915 16.7715 5.56988C16.9422 5.74062 16.9422 6.01744 16.7715 6.18818L16.1325 6.82712L16.7715 7.46609C16.9422 7.63683 16.9422 7.91365 16.7715 8.08439C16.6008 8.25513 16.3239 8.25513 16.1532 8.08439L15.5142 7.44542L14.8754 8.0843C14.7046 8.25504 14.4278 8.25504 14.2571 8.0843C14.0863 7.91356 14.0863 7.63674 14.2571 7.46601L14.8959 6.82712L14.2571 6.18827C14.0863 6.01753 14.0863 5.74071 14.2571 5.56997C14.4278 5.39923 14.7046 5.39923 14.8754 5.56997L15.5142 6.20883L16.1532 5.56988ZM18 15C18 15.6103 17.9089 16.1994 17.7395 16.7543L17.4544 17.1819H17.4546L16.3637 18.8183H16V21H15V18.8183H14V21H13V18.8183H11V21H10V18.8183H9V21H8V18.8183H7.63639L6.54549 17.1819H6.54556L6.26058 16.7545C6.09115 16.1995 6 15.6104 6 15C6 11.6863 8.68629 9 12 9C15.3137 9 18 11.6863 18 15ZM11.4545 15.5454H12.5454L13.0908 17.1817H10.909L11.4545 15.5454ZM16.2935 12.3606C16.0943 12.1614 15.7714 12.1614 15.5723 12.3606L14.8269 13.106L14.0818 12.3608C13.8827 12.1617 13.5598 12.1617 13.3606 12.3608C13.1615 12.56 13.1615 12.8829 13.3606 13.082L14.1057 13.8272L13.3606 14.5723C13.1615 14.7714 13.1615 15.0943 13.3606 15.2935C13.5598 15.4926 13.8827 15.4926 14.0818 15.2935L14.8269 14.5483L15.5723 15.2937C15.7714 15.4929 16.0943 15.4929 16.2935 15.2937C16.4926 15.0946 16.4926 14.7717 16.2935 14.5725L15.5481 13.8272L16.2935 13.0818C16.4926 12.8826 16.4926 12.5598 16.2935 12.3606ZM9.57222 12.3606C9.77137 12.1614 10.0943 12.1614 10.2934 12.3606C10.4926 12.5597 10.4926 12.8826 10.2934 13.0818L9.54804 13.8272L10.2934 14.5725C10.4926 14.7717 10.4926 15.0946 10.2934 15.2937C10.0943 15.4929 9.77136 15.4929 9.57221 15.2937L8.82685 14.5483L8.08174 15.2935C7.88258 15.4926 7.5597 15.4926 7.36054 15.2935C7.16139 15.0943 7.16139 14.7714 7.36054 14.5723L8.10566 13.8272L7.36054 13.082C7.16138 12.8829 7.16138 12.56 7.36054 12.3608C7.55969 12.1617 7.88258 12.1617 8.08173 12.3608L8.82685 13.106L9.57222 12.3606Z" fill="black"/>
</svg>
