<svg width="14" height="16" viewBox="0 0 14 16" fill="none" xmlns="http://www.w3.org/2000/svg">
<path d="M3.5082 7.09986H4.079C4.27953 7.09986 4.42992 7.03419 4.53018 6.90285C4.63044 6.76925 4.68057 6.59149 4.68057 6.36957C4.68057 5.87364 4.48574 5.62568 4.09609 5.62568H3.5082V7.09986Z" fill="black"/>
<path d="M9.27432 7.1678H9.96475C10.1562 7.1678 10.3043 7.10553 10.4091 6.98098C10.5139 6.85643 10.5663 6.67527 10.5663 6.4375C10.5663 6.19067 10.5128 5.99479 10.4057 5.84986C10.2986 5.70267 10.155 5.62794 9.975 5.62568H9.27432V7.1678Z" fill="black"/>
<path fill-rule="evenodd" clip-rule="evenodd" d="M12.6 5.56522V12.5217H1.4V5.56522C1.40004 2.49167 3.90723 0 7 0C10.0928 0 12.6 2.49167 12.6 5.56522ZM4.00723 7.93207H3.5082V9.73913H2.50332V4.79348H4.10635C4.60993 4.79348 4.99844 4.92369 5.27187 5.1841C5.54759 5.44226 5.68545 5.81024 5.68545 6.28804C5.68545 6.94475 5.44505 7.40444 4.96426 7.66712L5.83584 9.69158V9.73913H4.75576L4.00723 7.93207ZM7.4252 9.73913H6.42031V4.79348H7.4252V9.73913ZM9.27432 8V9.73913H8.26943V4.79348H9.96475C10.4569 4.79348 10.8489 4.9452 11.1405 5.24864C11.4345 5.55208 11.5814 5.94611 11.5814 6.43071C11.5814 6.91531 11.4368 7.29801 11.1474 7.5788C10.858 7.8596 10.4569 8 9.94424 8H9.27432Z" fill="black"/>
<path d="M14 16V13.2174H0V16H14Z" fill="black"/>
</svg>
