<svg width="16" height="18" viewBox="0 0 16 18" fill="none" xmlns="http://www.w3.org/2000/svg">
<path d="M11.6031 3.27684C10.5203 3.12122 9.29613 3.03356 8 3.03356C6.70388 3.03356 5.47976 3.12122 4.39693 3.27683C4.63796 1.42626 6.15926 0 8.00002 0C9.84078 0 11.3621 1.42626 11.6031 3.27684Z" fill="black"/>
<path d="M16 6.06712C16 7.32366 12.4183 8.34228 8 8.34228C3.58172 8.34228 0 7.32366 0 6.06712C0 4.81058 3.58172 3.79195 8 3.79195C12.4183 3.79195 16 4.81058 16 6.06712Z" fill="black"/>
<path fill-rule="evenodd" clip-rule="evenodd" d="M5.06813 9.33693L5.33092 9.36248C6.12878 9.44004 6.98593 9.48226 7.87879 9.48226C8.77165 9.48226 9.6288 9.44004 10.4267 9.36248L10.6894 9.33693L14.4699 15.2502C14.6727 15.4219 14.8685 15.6748 14.8687 16.0162C14.8687 16.2742 14.7538 16.4847 14.6171 16.6395C14.4825 16.792 14.3056 16.9165 14.1154 17.0207C13.7341 17.2296 13.2114 17.4038 12.6029 17.5448C11.3785 17.8285 9.70855 18 7.87879 18C6.04902 18 4.37903 17.8285 3.15469 17.5447C2.54614 17.4037 2.02349 17.2295 1.64216 17.0206C1.452 16.9164 1.27504 16.7918 1.14046 16.6394C1.00374 16.4846 0.888889 16.2743 0.888889 16.0162C0.889037 15.6748 1.08503 15.4218 1.28768 15.2502L5.06813 9.33693ZM5.51266 10.3164L1.94088 15.9033L1.87683 15.9521C1.84345 15.9775 1.8197 15.9991 1.80314 16.0163C1.84596 16.0607 1.92412 16.122 2.05326 16.1927C2.33436 16.3467 2.77027 16.4995 3.34621 16.6329C4.49087 16.8982 6.0936 17.0663 7.87879 17.0663C9.66398 17.0663 11.2667 16.8983 12.4114 16.633C12.9873 16.4996 13.4232 16.3469 13.7043 16.1928C13.8335 16.1221 13.9117 16.0608 13.9545 16.0164C13.9379 15.9992 13.9142 15.9775 13.8807 15.9521L13.8167 15.9033L10.2449 10.3164C9.49525 10.3812 8.70088 10.4159 7.87879 10.4159C7.0567 10.4159 6.26233 10.3812 5.51266 10.3164ZM13.9869 15.9759L13.9864 15.977L13.9869 15.9759ZM1.77067 15.9758L1.77122 15.9769L1.77067 15.9758Z" fill="black"/>
</svg>
