<svg width="18" height="12" viewBox="0 0 18 12" fill="none" xmlns="http://www.w3.org/2000/svg">
<path d="M4.12535 3.00671C2.61763 2.70418 1.43832 1.5071 1.17851 0C0.462076 0.542179 0 1.39652 0 2.35759C0 3.73986 0.955855 4.90134 2.24954 5.23086C2.70449 4.36027 3.34747 3.60137 4.12535 3.00671Z" fill="black"/>
<path d="M16.8215 0C16.5617 1.5071 15.3824 2.70418 13.8746 3.00671C14.6525 3.60137 15.2955 4.36027 15.7505 5.23086C17.0441 4.90134 18 3.73986 18 2.35759C18 1.39652 17.5379 0.542179 16.8215 0Z" fill="black"/>
<path d="M11.7349 1.87821L9.00002 4.58288L6.26512 1.87821C6.73585 0.84881 7.78335 0.132553 9.00002 0.132553C10.2167 0.132553 11.2642 0.84881 11.7349 1.87821Z" fill="black"/>
<path d="M8.99991 5.3246L12.0322 2.32583C14.2373 3.42417 15.75 5.68311 15.75 8.29146H2.24996C2.24996 5.68316 3.76261 3.42425 5.96769 2.32589L8.99991 5.3246Z" fill="black"/>
<path d="M1.12495 9.03314C0.917846 9.03314 0.749952 9.19918 0.749952 9.404V11.6291C0.749952 11.834 0.917846 12 1.12495 12H16.875C17.0822 12 17.25 11.834 17.25 11.6291V9.404C17.25 9.19918 17.0822 9.03314 16.875 9.03314H1.12495Z" fill="black"/>
</svg>
