<svg width="12" height="20" viewBox="0 0 12 20" fill="none" xmlns="http://www.w3.org/2000/svg">
<path d="M5.19326 4.44444C5.77431 2.9899 5.25379 0.606061 4.83011 0C9.00638 3.83838 8.28005 7.67677 7.00902 10.5051C6.61301 11.3862 5.77994 11.9221 4.93023 12.4686C3.84582 13.1661 2.7343 13.8811 2.46961 15.3535C2.14277 17.1717 3.74063 18.7879 5.19326 20C-0.617207 19.596 -0.798761 13.3333 1.017 9.69697C2.0503 7.62763 3.0248 6.8013 3.80664 6.13834C4.39869 5.63631 4.88028 5.22795 5.19326 4.44444Z" fill="black"/>
<path d="M8.90299 10.9484C9.71751 9.91117 9.58176 7.92317 9.41207 7.05883C11.2787 11.5966 8.22422 14.1897 6.86667 14.8379C5.78064 15.3565 5.16974 16.9268 5.00005 17.6471C5.05661 16.7827 5.33944 14.7947 6.01821 13.7575C6.46672 13.0721 6.96266 12.6887 7.48095 12.288C7.94311 11.9306 8.42305 11.5595 8.90299 10.9484Z" fill="black"/>
<path d="M11.412 9.41176C11.5817 10.2761 11.7174 12.2641 10.9029 13.3013C10.423 13.9125 9.94305 14.2835 9.48088 14.6409C8.9626 15.0416 8.46666 15.4251 8.01814 16.1104C7.33937 17.1477 7.05655 19.1356 6.99999 20C7.16968 19.2797 7.78057 17.7095 8.86661 17.1909C10.2242 16.5426 13.2786 13.9496 11.412 9.41176Z" fill="black"/>
</svg>
