<svg width="22" height="20" viewBox="0 0 22 20" fill="none" xmlns="http://www.w3.org/2000/svg">
<path fill-rule="evenodd" clip-rule="evenodd" d="M5.5 16.1904C5.50006 16.1521 5.51306 16.1144 5.53833 16.0774L11 0L16.4617 16.0774C16.4869 16.1144 16.5 16.1521 16.5 16.1902C16.5 16.7164 14.0375 17.1428 11 17.1428C7.96246 17.1428 5.5 16.7164 5.5 16.1904ZM11.2674 9.72919L11.764 11.3943C11.7708 11.415 11.7831 11.433 11.7996 11.4459C11.8159 11.4588 11.8355 11.466 11.8557 11.4664H13.4653C13.5253 11.4654 13.5839 11.4853 13.6327 11.5232C13.6815 11.5612 13.7178 11.6152 13.7363 11.6773C13.7548 11.7394 13.7546 11.8063 13.7356 11.8683C13.7166 11.9302 13.6799 11.9839 13.6309 12.0214L12.3295 13.0538C12.3223 13.0592 12.316 13.0656 12.3105 13.0728C12.3032 13.0825 12.2975 13.0936 12.2938 13.1056C12.2874 13.1266 12.2874 13.1493 12.2938 13.1703L12.8032 14.8354C12.8148 14.8732 12.8195 14.9128 12.8172 14.9521C12.8158 14.9767 12.8116 15.0011 12.8047 15.0249C12.7867 15.0866 12.7513 15.1405 12.7034 15.1788C12.6768 15.2001 12.6472 15.2159 12.616 15.2258C12.5908 15.2338 12.5646 15.2379 12.5381 15.238C12.4787 15.2381 12.4208 15.2176 12.3727 15.1795L11.056 14.1527C11.0489 14.1467 11.041 14.1419 11.0327 14.1385C11.0223 14.1342 11.0112 14.1319 11 14.1319C10.9797 14.1319 10.96 14.1392 10.944 14.1527L9.64001 15.1851C9.59186 15.2199 9.53503 15.2377 9.47723 15.236C9.41949 15.2342 9.36359 15.2131 9.31732 15.1754C9.271 15.1377 9.23651 15.0853 9.21863 15.0255C9.20068 14.9656 9.2002 14.9011 9.21722 14.841L9.72656 13.1759C9.73297 13.1549 9.73297 13.1322 9.7265 13.1111C9.72009 13.0901 9.70764 13.072 9.69092 13.0593L8.36914 12.0159C8.32007 11.9783 8.28339 11.9247 8.2644 11.8627C8.24542 11.8008 8.24518 11.7338 8.26373 11.6717C8.28223 11.6096 8.31854 11.5556 8.36731 11.5177C8.41608 11.4797 8.47473 11.4598 8.53467 11.4609H10.1443C10.1633 11.4613 10.1821 11.4558 10.1984 11.445C10.2146 11.4342 10.2277 11.4185 10.236 11.3998L10.7326 9.73474C10.7512 9.6738 10.7867 9.62071 10.8344 9.58289C10.882 9.54507 10.9393 9.52441 10.9982 9.5238C11.0571 9.52318 11.1147 9.54265 11.163 9.57948C11.2113 9.6163 11.2478 9.66864 11.2674 9.72919Z" fill="black"/>
<path d="M3.99988 17.3008C3.99988 17.2501 4.02124 17.2002 4.06262 17.1514L5.07758 14.7347C2.02405 15.2424 0 16.1313 0 17.1429C0 18.7209 4.92487 20.0001 11 20.0001C17.0751 20.0001 22 18.7209 22 17.1429C22 16.1312 19.9758 15.2424 16.9221 14.7347L17.9371 17.1514C17.9785 17.2002 17.9999 17.2501 17.9999 17.3008C17.9999 17.9144 14.8658 18.4119 10.9999 18.4119C7.13391 18.4119 3.99988 17.9144 3.99988 17.3008Z" fill="black"/>
</svg>
